<?xml version='1.0' encoding='UTF-8'?><!DOCTYPE svg PUBLIC "-//W3C//DTD SVG 1.1//EN" "http://www.w3.org/Graphics/SVG/1.1/DTD/svg11.dtd"><svg xmlns:xlink="http://www.w3.org/1999/xlink" xmlns="http://www.w3.org/2000/svg" version="1.1" x="0" y="0" width="78px" height="1366px" viewBox="0 0 78 1366" preserveAspectRatio="none"><g transform="translate(0,258)"><path d="M19 13h-6v6h-2v-6H5v-2h6V5h2v6h6v2z" fill="#FFF"/>
</g><g transform="translate(24,439)"><path id="Shape" d="M5.97,13.099c-1.397,0-2.47,1.132-2.47,2.529l0,0v4.302v2.025v4.014c0,1.401,1.073,2.531,2.47,2.531  s2.53-1.135,2.53-2.531l0,0v-4.014V19.93v-4.302C8.5,14.23,7.368,13.099,5.97,13.099L5.97,13.099z"/>
<path id="Shape_1_" d="M36.5,15.611c0-1.388-1.127-2.512-2.515-2.512S31.5,14.225,31.5,15.611l0,0v4.275v2.012v4.087l0,0  c0,1.392,1.099,2.515,2.485,2.515c1.389,0,2.515-1.127,2.515-2.515l0,0v-4.087v-2.012V15.611L36.5,15.611z"/>
<path id="Shape_2_" d="M9.617,13.513H9.5V29.13c0,1.304,1.066,2.368,2.369,2.368H13.5v1.415v4.028c0,1.309,1.401,2.367,2.709,2.367  s2.29-1.061,2.291-2.367l0,0v-4.028v-1.415h3v1.415v4.028c0,1.309,1.372,2.367,2.68,2.367c1.309,0,2.32-1.061,2.32-2.367v-4.028  v-1.415h1.633c1.304,0,2.367-1.064,2.367-2.368V13.513h-0.037H9.617L9.617,13.513z"/>
<path id="Shape_3_" d="M30.481,12.5v-0.959c-0.031-0.324-0.08-0.644-0.146-0.958c-0.588-2.777-2.112-5.131-4.772-6.497l1.637-3.018  c0.1-0.188,0.031-0.421-0.156-0.521c-0.188-0.102-0.42-0.032-0.521,0.154l-1.655,3.056c-1.406-0.604-2.984-0.943-4.653-0.943  c-1.679,0-3.27,0.344-4.686,0.957l-1.664-3.069c-0.101-0.187-0.334-0.256-0.522-0.154c-0.187,0.101-0.256,0.334-0.155,0.521  l1.644,3.033c-2.533,1.312-4.382,3.523-5.047,6.143c-0.173,0.68-0.264,1.203-0.264,1.929c0,0.108,0.003,0.217,0.007,0.325  L30.481,12.5L30.481,12.5z M25.068,6.879c0.557,0,1.008,0.45,1.008,1.007c0,0.556-0.451,1.007-1.008,1.007s-1.006-0.451-1.006-1.007  C24.062,7.329,24.514,6.879,25.068,6.879L25.068,6.879z M15.317,6.879c0.556,0,1.007,0.45,1.007,1.007  c0,0.556-0.451,1.007-1.007,1.007c-0.556,0-1.007-0.451-1.007-1.007C14.311,7.329,14.761,6.879,15.317,6.879L15.317,6.879z"/>
</g><g transform="translate(24,343)"><g>
 <path d="M28.773,21.596c-0.039-4.234,3.467-6.293,3.627-6.39c-1.986-2.894-5.062-3.289-6.143-3.32   c-2.584-0.271-5.09,1.546-6.406,1.546c-1.344,0-3.371-1.52-5.555-1.476c-2.811,0.044-5.44,1.671-6.883,4.199   c-2.977,5.153-0.757,12.726,2.096,16.891c1.426,2.041,3.094,4.318,5.275,4.237c2.135-0.088,2.932-1.36,5.508-1.36   c2.553,0,3.301,1.36,5.525,1.31c2.291-0.037,3.734-2.049,5.109-4.107c1.648-2.337,2.311-4.641,2.336-4.759   C33.213,28.348,28.818,26.669,28.773,21.596z"/>
 <path d="M24.57,9.146c1.146-1.436,1.934-3.389,1.715-5.372c-1.662,0.074-3.738,1.149-4.936,2.554   c-1.06,1.237-2.004,3.265-1.76,5.173C21.455,11.64,23.371,10.559,24.57,9.146z"/>
</g>
</g><g transform="translate(48,716)"><path fill="none" d="M0,0h24v24H0V0z"/>
<path fill="#FFFFFF" d="M20,11H7.8l5.6-5.6L12,4l-8,8l8,8l1.4-1.4L7.8,13H20V11z"/>
</g><g transform="translate(24,112)"><path fill="none" d="M0 0h24v24H0V0z"/>
  <path d="M20 11H7.8l5.6-5.6L12 4l-8 8 8 8 1.4-1.4L7.8 13H20v-2z"/>
</g><g transform="translate(24,641)"><path fill="none" d="M0 0h24v24H0V0z"/>
  <path fill="#5F6368" d="M20 11H7.8l5.6-5.6L12 4l-8 8 8 8 1.4-1.4L7.8 13H20v-2z"/>
</g><g transform="translate(0,511)"><defs>
    <path id="check_18_a" d="M6.75 12.127L3.623 9l-1.065 1.057L6.75 14.25l9-9-1.057-1.058z"/>
  </defs>
  <g fill="none" fill-rule="evenodd">
    <mask id="check_18_b" fill="#fff">
      <use xlink:href="#check_18_a"/>
    </mask>
    <path fill="#5f6368" mask="url(#check_18_b)" d="M0 0h18v18H0z"/>
  </g>
</g><g transform="translate(54,221)"><path d="M19 6.41L17.59 5 12 10.59 6.41 5 5 6.41 10.59 12 5 17.59 6.41 19 12 13.41 17.59 19 19 17.59 13.41 12z"/>
</g><g transform="translate(54,511)"><g id="Layer_1">
</g>
<g id="Isolation_Mode">
  <g id="XMLID_167_">
    <g>
      <path d="M14,12.9L12.9,14L10,11.1L7.1,14L6,12.9L8.9,10L6,7.1L7.1,6L10,8.9L12.9,6L14,7.1L11.1,10L14,12.9z"/>
    </g>
    <rect fill="none" width="20" height="20"/>
  </g>
</g>
</g><g transform="translate(0,160)"><!-- Generator: Sketch 3.5.1 (25234) - http://www.bohemiancoding.com/sketch -->
    <title>Comments_Dark_24dp</title>
    <desc>Created with Sketch.</desc>
    <defs/>
    <g xmlns:sketch="http://www.bohemiancoding.com/sketch/ns" id="Page-1" stroke="none" stroke-width="1" fill="none" fill-rule="evenodd" sketch:type="MSPage">
        <g id="Comments_Dark_24dp" sketch:type="MSArtboardGroup">
            <g id="ic_insert_comment_#5f6368_24dp" sketch:type="MSLayerGroup">
                <path d="M0,0 L24,0 L24,24 L0,24 L0,0 Z" id="Shape" sketch:type="MSShapeGroup"/>
                <path d="M20,2 L4,2 C2.9,2 2,2.9 2,4 L2,16 C2,17.1 2.9,18 4,18 L18,18 L22,22 L22,4 C22,2.9 21.1,2 20,2 L20,2 Z M18,14 L6,14 L6,12 L18,12 L18,14 L18,14 Z M18,11 L6,11 L6,9 L18,9 L18,11 L18,11 Z M18,8 L6,8 L6,6 L18,6 L18,8 L18,8 Z" id="Shape" fill="#5f6368" sketch:type="MSShapeGroup"/>
            </g>
        </g>
    </g>
</g><g transform="translate(0,463)"><defs>
    <path id="delete_outline_24_a" d="M15 4V3H9v1H4v2h1v13c0 1.1.9 2 2 2h10c1.1 0 2-.9 2-2V6h1V4h-5zm2 15H7V6h10v13zM9 8h2v9H9V8zm4 0h2v9h-2V8z"/>
  </defs>
  <g fill="none" fill-rule="evenodd">
    <mask id="delete_outline_24_b" fill="#fff">
      <use xlink:href="#delete_outline_24_a"/>
    </mask>
    <path fill="#5f6368" mask="url(#delete_outline_24_b)" d="M0 0h24v24H0z"/>
  </g>
</g><g transform="translate(48,1195)"><g>
 <path fill="#4285F4" d="M14,13.125C14,13.608,13.608,14,13.125,14H0.875C0.392,14,0,13.608,0,13.125V0.875C0,0.392,0.392,0,0.875,0   h12.25C13.608,0,14,0.392,14,0.875V13.125z"/>
 <rect x="3" y="6" fill="#FFFFFF" width="8" height="1"/>
 <rect x="3" y="4" fill="#FFFFFF" width="8" height="1"/>
 <rect x="3" y="8" fill="#FFFFFF" width="4" height="1"/>
 <rect fill="none" width="16" height="16"/>
</g>
</g><g transform="translate(48,415)"><g fill="none" fill-rule="evenodd">
    <path d="M0 0h24v24H0z"/>
    <path d="M19 3H5c-1.1 0-2 .9-2 2v14c0 1.1.9 2 2 2h14c1.1 0 2-.9 2-2V5c0-1.1-.9-2-2-2zm-1.99 6H7V7h10.01v2zm0 4H7v-2h10.01v2zm-3 4H7v-2h7.01v2z" fill="#4285F4"/>
  </g>
</g><g transform="translate(48,885)"><g>
 <g>
  <g>
   <g>
    <g>
     <path fill="#FFFFFF" d="M29,10h-9V1H1.984C1.312,1,1,2,1,2v33c0,0.484,0.484,1,1,1h25.938C28.516,36,29,35.453,29,34.984V10z"/>
    </g>
   </g>
   <polygon fill="#E4E4E4" points="20,10 29,10 29,17    "/>
   <polygon fill="#F7F7F7" points="29,10 20,10 20,1    "/>
  </g>
  <g opacity="0.07">
   <path d="M20,1l9,9v7v17.984C29,35.453,28.516,36,27.938,36H2c-0.516,0-1-0.516-1-1V2c0,0,0.312-1,0.984-1H20 M20.414,0H20H1.984     C0.946,0,0.291,0.917,0.045,1.702L0,1.848V2v33c0,1.047,0.953,2,2,2h25.938C29.017,37,30,36.039,30,34.984V17v-7V9.586     l-0.293-0.293l-9-9L20.414,0L20.414,0z"/>
  </g>
 </g>
 <g>
  <path fill="#4285F4" d="M22,28.125C22,28.608,21.608,29,21.125,29H8.875C8.392,29,8,28.608,8,28.125v-12.25    C8,15.392,8.392,15,8.875,15h12.25C21.608,15,22,15.392,22,15.875V28.125z"/>
  <rect x="11" y="21" fill="#FFFFFF" width="8" height="1"/>
  <rect x="11" y="19" fill="#FFFFFF" width="8" height="1"/>
  <rect x="11" y="23" fill="#FFFFFF" width="4" height="1"/>
  <rect x="8" y="15" fill="none" width="16" height="16"/>
 </g>
</g>
</g><g transform="translate(30,1257)"><g>
 <g>
  <g>
   <g opacity="0.03">
    <g>
     <path d="M29,10h-9V1H1.984C1.312,1,1,2,1,2v33c0,0.484,0.484,1,1,1h25.938C28.516,36,29,35.453,29,34.984V10z"/>
    </g>
   </g>
   <polygon fill="#DDDDDD" points="20,10 29,10 29,17    "/>
   <polygon fill="#EEEEEE" points="29,10 20,10 20,1    "/>
  </g>
  <g opacity="0.07">
   <path d="M20,1l9,9v7v17.984C29,35.453,28.516,36,27.938,36H2c-0.516,0-1-0.516-1-1V2c0,0,0.312-1,0.984-1H20 M20.414,0H20H1.984     C0.946,0,0.291,0.917,0.045,1.702L0,1.848V2v33c0,1.047,0.953,2,2,2h25.938C29.017,37,30,36.039,30,34.984V17v-7V9.586     l-0.293-0.293l-9-9L20.414,0L20.414,0z"/>
  </g>
 </g>
 <g>
  <path fill="#4285F4" d="M22,28.125C22,28.608,21.608,29,21.125,29H8.875C8.392,29,8,28.608,8,28.125v-12.25    C8,15.392,8.392,15,8.875,15h12.25C21.608,15,22,15.392,22,15.875V28.125z"/>
  <rect x="11" y="21" fill="#FFFFFF" width="8" height="1"/>
  <rect x="11" y="19" fill="#FFFFFF" width="8" height="1"/>
  <rect x="11" y="23" fill="#FFFFFF" width="4" height="1"/>
  <rect x="8" y="15" fill="none" width="16" height="16"/>
 </g>
</g>
</g><g transform="translate(24,1294)"><path d="M7 10l5 5 5-5z" fill="#5f6368"/>
  <path d="M0 0h24v24H0z" fill="none"/>
</g><g transform="translate(0,828)"><defs>
    <path id="drowdown_arrow_#5f6368_18_a" d="M5 7l4 4 4-4z"/>
  </defs>
  <use fill="#5f6368" fill-rule="nonzero" xlink:href="#drowdown_arrow_#5f6368_18_a"/>
</g><g transform="translate(0,804)"><path d="M7 10l5 5 5-5z" fill="#5F6368"/>
  <path d="M0 0h24v24H0z" fill="none"/>
</g><g transform="translate(24,689)"><path d="M7 10l5 5 5-5z" fill="#FFFFFF"/>
    <path d="M0 0h24v24H0z" fill="none"/>
</g><g transform="translate(24,197)"><path d="M3 17.25V21h3.75L17.81 9.94l-3.75-3.75L3 17.25zM20.71 7.04c.39-.39.39-1.02 0-1.41l-2.34-2.34c-.39-.39-1.02-.39-1.41 0l-1.83 1.83 3.75 3.75 1.83-1.83z"/>
    <path d="M0 0h24v24H0z" fill="none"/>
</g><g transform="translate(24,0)"><defs>
    <path id="edit_pencil_outline_24_a" d="M20.41 4.94l-1.35-1.35c-.78-.78-2.05-.78-2.83 0L13.4 6.41 3 16.82V21h4.18l10.46-10.46 2.77-2.77c.79-.78.79-2.05 0-2.83zm-14 14.12L5 19v-1.36l9.82-9.82 1.41 1.41-9.82 9.83z"/>
  </defs>
  <g fill="none" fill-rule="evenodd">
    <mask id="edit_pencil_outline_24_b" fill="#fff">
      <use xlink:href="#edit_pencil_outline_24_a"/>
    </mask>
    <path fill="#5f6368" mask="url(#edit_pencil_outline_24_b)" d="M0 0h24v24H0z"/>
  </g>
</g><g transform="translate(0,740)"><g>
 <polygon fill="#2FC586" points="10.744,13 13.106,13 8.187,5.96 12.318,0 9.869,0 6.981,4.375 4.236,0 1.788,0 5.92,5.96 1,13    8,13 8,11 4.5,11 6.981,7.292  "/>
 <rect fill="none" width="14" height="14"/>
</g>
</g><g transform="translate(48,1047)"><g id="excel_24_a" stroke="none" stroke-width="1" fill="none" fill-rule="evenodd">
    <g id="excel_24_b">
      <polygon id="Path" points="0 0 24 0 24 24 0 24"/>
      <path d="M19,3 L5,3 C3.9,3 3,3.9 3,5 L3,19 C3,20.1 3.9,21 5,21 L19,21 C20.1,21 21,20.1 21,19 L21,5 C21,3.9 20.1,3 19,3 Z M16.2,17 L14.2,17 L12,13.2 L9.8,17 L7.8,17 L11,12 L7.8,7 L9.8,7 L12,10.8 L14.2,7 L16.2,7 L13,12 L16.2,17 Z" id="Shape" fill="#0F9D58" fill-rule="nonzero"/>
    </g>
  </g>
</g><g transform="translate(0,1256)"><g>
 <g>
  <g>
   <g>
    <g>
     <path fill="#FFFFFF" d="M29,10h-9V1H1.984C1.312,1,1,2,1,2v33c0,0.484,0.484,1,1,1h25.938C28.516,36,29,35.453,29,34.984V10z"/>
    </g>
   </g>
   <polygon fill="#E4E4E4" points="20,10 29,10 29,17    "/>
   <polygon fill="#F7F7F7" points="29,10 20,10 20,1    "/>
  </g>
  <g opacity="0.07">
   <path d="M20,1l9,9v7v17.984C29,35.453,28.516,36,27.938,36H2c-0.516,0-1-0.516-1-1V2c0,0,0.312-1,0.984-1H20 M20.414,0H20H1.984     C0.946,0,0.291,0.917,0.046,1.702L0,1.848V2v33c0,1.047,0.953,2,2,2h25.938C29.017,37,30,36.039,30,34.984V17v-7V9.586     l-0.293-0.293l-9-9L20.414,0L20.414,0z"/>
  </g>
 </g>
</g>
<g>
 <polygon fill="#2FC586" points="18.744,28 21.106,28 16.187,20.96 20.318,15 17.869,15 14.981,19.375 12.236,15 9.788,15    13.92,20.96 9,28 16,28 16,26 12.5,26 14.981,22.292  "/>
 <rect x="8" y="15" fill="none" width="14" height="14"/>
</g>
</g><g transform="translate(48,848)"><g>
 <g>
  <g>
   <g opacity="0.03">
    <g>
     <path d="M29,10h-9V1H1.984C1.312,1,1,2,1,2v33c0,0.484,0.484,1,1,1h25.938C28.516,36,29,35.453,29,34.984V10z"/>
    </g>
   </g>
   <polygon fill="#DDDDDD" points="20,10 29,10 29,17    "/>
   <polygon fill="#EEEEEE" points="29,10 20,10 20,1    "/>
  </g>
  <g opacity="0.07">
   <path d="M20,1l9,9v7v17.984C29,35.453,28.516,36,27.938,36H2c-0.516,0-1-0.516-1-1V2c0,0,0.312-1,0.984-1H20 M20.414,0H20H1.984     C0.946,0,0.291,0.917,0.046,1.702L0,1.848V2v33c0,1.047,0.953,2,2,2h25.938C29.017,37,30,36.039,30,34.984V17v-7V9.586     l-0.293-0.293l-9-9L20.414,0L20.414,0z"/>
  </g>
 </g>
</g>
<g>
 <polygon fill="#2FC586" points="18.744,28 21.106,28 16.187,20.96 20.318,15 17.869,15 14.981,19.375 12.236,15 9.788,15    13.92,20.96 9,28 16,28 16,26 12.5,26 14.981,22.292  "/>
 <rect x="8" y="15" fill="none" width="14" height="14"/>
</g>
</g><g transform="translate(48,641)"><defs>
    <path id="expand_more_a" d="M5.41 7.59L4 9l8 8 8-8-1.41-1.41L12 14.17"/>
  </defs>
  <g fill="none" fill-rule="evenodd">
    <mask id="expand_more_b" fill="#fff">
      <use xlink:href="#expand_more_a"/>
    </mask>
    <g mask="url(#expand_more_b)" fill="#5f6368">
      <path d="M0 0h24v24H0z"/>
    </g>
  </g>
</g><g transform="translate(54,922)"><path d="M16.59 8.59L12 13.17 7.41 8.59 6 10l6 6 6-6z" fill="#FFFFFF"/>
    <path d="M0 0h24v24H0z" fill="none"/>
</g><g transform="translate(48,391)"><g fill="none" fill-rule="evenodd">
    <path fill="#4285F4" d="M10 10v4.001h14V10z"/>
    <path fill="#FBBC05" d="M10 10H0v4.001h10L14.001 10z"/>
    <path fill="#34A853" d="M10 14h4v10h-4z"/>
    <path fill="#EA4335" d="M10 0v14l4.001-4V0z"/>
  </g>
</g><g transform="translate(24,258)"><path d="M0 0h24v24H0z" fill="none"/>
  <path d="M20 2H4c-1.1 0-1.99.9-1.99 2L2 22l4-4h14c1.1 0 2-.9 2-2V4c0-1.1-.9-2-2-2zm-7 12h-2v-2h2v2zm0-4h-2V6h2v4z" fill="#5f6368"/>
</g><g transform="translate(30,1219)"><defs>
    <path id="file_upload_18_a" d="M0 8h2.00061035v2H10V8h2v2.5c0 .825-.675 1.5-1.5 1.5h-9C.675 12 0 11.325 0 10.5V8zm3.3075-3.1925L5 2.8725V8h2V2.8725L8.6925 4.815 9.75 3.75 6 0 2.25 3.75l1.0575 1.0575z"/>
  </defs>
  <use fill="#5f6368" fill-rule="nonzero" xlink:href="#file_upload_18_a" transform="translate(3 3)"/>
</g><g transform="translate(48,804)"><g id="ic_x5F_list_x0D_">
</g>
<g id="ic_x5F_viewModule">
</g>
<g id="ic_x5F_folder_x5F_flat_#5f6368">
  <path d="M2,18c0,1.104,0.896,2,2,2h16c1.104,0,2-0.896,2-2V8c0-1.104-0.896-2-2-2h-8.586L9.707,4.293C9.512,4.098,9.256,4,9,4.002     L4,4C2.896,4,2,4.896,2,6V18z"/>
  <rect fill="none" width="24" height="24"/>
</g>
</g><g transform="translate(48,112)"><defs>
    <path id="folder_outline_24_a" d="M20 6h-8l-2-2H4c-1.1 0-1.99.9-1.99 2L2 18c0 1.1.9 2 2 2h16c1.1 0 2-.9 2-2V8c0-1.1-.9-2-2-2zm0 12H4V8h16v10z"/>
  </defs>
  <g fill="none" fill-rule="evenodd">
    <mask id="folder_outline_24_b" fill="#fff">
      <use xlink:href="#folder_outline_24_a"/>
    </mask>
    <path fill="#5f6368" mask="url(#folder_outline_24_b)" d="M0 0h24v24H0z"/>
  </g>
</g><g transform="translate(0,689)"><path d="M2 18a2 2 0 0 0 2 2h16a2 2 0 0 0 2-2V8a2 2 0 0 0-2-2h-8.586L9.707 4.293A.987.987 0 0 0 9 4.002L4 4a2 2 0 0 0-2 2v12z" fill="#FFF"/>
  <path fill="none" d="M0 0h24v24H0z"/>
</g><g transform="translate(48,665)"><!-- Generator: Sketch 3.3.2 (12043) - http://www.bohemiancoding.com/sketch -->
    <title>forms_14</title>
    <desc>Created with Sketch.</desc>
    <defs/>
    <g xmlns:sketch="http://www.bohemiancoding.com/sketch/ns" id="Page-1" stroke="none" stroke-width="1" fill="none" fill-rule="evenodd" sketch:type="MSPage">
        <g id="forms_14" sketch:type="MSLayerGroup" fill="#673AB7">
            <g id="Page-1" sketch:type="MSShapeGroup">
                <g id="forms_14--1">
                    <g id="Group">
                        <path d="M12.4,0 L1.6,0 C0.7,0 0,0.7 0,1.6 L0,12.4 C0,13.3 0.7,14 1.6,14 L12.4,14 C13.3,14 14,13.3 14,12.4 L14,1.6 C14,0.7 13.3,0 12.4,0 L12.4,0 L12.4,0 Z M4,11 L2,11 L2,9 L4,9 L4,11 L4,11 Z M4,8 L2,8 L2,6 L4,6 L4,8 L4,8 Z M4,5 L2,5 L2,3 L4,3 L4,5 L4,5 Z M12,11 L5,11 L5,9 L12,9 L12,11 L12,11 Z M12,8 L5,8 L5,6 L12,6 L12,8 L12,8 Z M12,5 L5,5 L5,3 L12,3 L12,5 L12,5 Z" id="Shape"/>
                    </g>
                </g>
            </g>
        </g>
    </g>
</g><g transform="translate(24,848)"><g fill="none" fill-rule="evenodd">
    <path d="M19 3H5c-1.1 0-2 .9-2 2v14c0 1.1.9 2 2 2h14c1.1 0 2-.9 2-2V5c0-1.1-.9-2-2-2zM9 17H7v-2h2v2zm0-4H7v-2h2v2zm0-4H7V7h2v2zm8 8h-7v-2h7v2zm0-4h-7v-2h7v2zm0-4h-7V7h7v2z" fill="#8430CE" fill-rule="nonzero"/>
    <path d="M0 0h24v24H0z"/>
  </g>
</g><g transform="translate(24,946)"><!-- Generator: Sketch 3.3.2 (12043) - http://www.bohemiancoding.com/sketch -->
    <title>forms_hover_30_37</title>
    <desc>Created with Sketch.</desc>
    <defs/>
    <g xmlns:sketch="http://www.bohemiancoding.com/sketch/ns" id="Page-1" stroke="none" stroke-width="1" fill="none" fill-rule="evenodd" sketch:type="MSPage">
        <g id="forms_hover_30_37" sketch:type="MSLayerGroup">
            <g id="Page-1" sketch:type="MSShapeGroup">
                <g id="forms_hover_30_37">
                    <g id="Group">
                        <g id="Shape">
                            <g id="Group" transform="translate(0.000000, 1.000000)">
                                <path d="M28.9,9 L19.9,9 L19.9,0 L1.9,0 C1.2,0 0.9,1 0.9,1 L0.9,34 C0.9,34.5 1.4,35 1.9,35 L27.8,35 C28.4,35 28.9,34.5 28.9,34 L28.9,9 L28.9,9 Z" id="Shape" fill="#FFFFFF"/>
                                <path d="M19.9,9 L28.9,9 L28.9,16 L19.9,9 L19.9,9 Z" id="Shape" fill="#E4E4E4"/>
                                <path d="M28.9,9 L19.9,9 L19.9,0 L28.9,9 L28.9,9 Z" id="Shape" fill="#F7F7F7"/>
                            </g>
                            <g id="Group" fill-opacity="0.07" fill="#5f6368">
                                <path d="M19.9,1 L28.9,10 L28.9,17 L28.9,35 C28.9,35.5 28.4,36 27.8,36 L1.9,36 C1.4,36 0.9,35.5 0.9,35 L0.9,2 C0.9,2 1.2,1 1.9,1 L19.9,1 L19.9,1 Z M20.3,0 L19.9,0 L1.9,0 C0.9,0 0.2,0.9 5.68434189e-14,1.7 L5.68434189e-14,1.8 L5.68434189e-14,2 L5.68434189e-14,35 C5.68434189e-14,36 1,37 2,37 L27.9,37 C29,37 30,36 30,35 L30,17 L30,10 L30,9.6 L29.7,9.3 L20.7,0.3 L20.3,0 L20.3,0 Z" id="Shape"/>
                            </g>
                        </g>
                    </g>
                </g>
            </g>
            <path d="M20.4,15 L9.6,15 C8.7,15 8,15.7 8,16.6 L8,27.4 C8,28.3 8.7,29 9.6,29 L20.4,29 C21.3,29 22,28.3 22,27.4 L22,16.6 C22,15.7 21.3,15 20.4,15 L20.4,15 L20.4,15 Z M12,26 L10,26 L10,24 L12,24 L12,26 L12,26 Z M12,23 L10,23 L10,21 L12,21 L12,23 L12,23 Z M12,20 L10,20 L10,18 L12,18 L12,20 L12,20 Z M20,26 L13,26 L13,24 L20,24 L20,26 L20,26 Z M20,23 L13,23 L13,21 L20,21 L20,23 L20,23 Z M20,20 L13,20 L13,18 L20,18 L20,20 L20,20 Z" id="Shape" fill="#673AB7" sketch:type="MSShapeGroup"/>
        </g>
    </g>
</g><g transform="translate(44,160)"><!-- Generator: Sketch 3.3.2 (12043) - http://www.bohemiancoding.com/sketch -->
    <title>Slice 1</title>
    <desc>Created with Sketch.</desc>
    <defs/>
    <g xmlns:sketch="http://www.bohemiancoding.com/sketch/ns" id="Page-1" stroke="none" stroke-width="1" fill="none" fill-rule="evenodd" sketch:type="MSPage">
        <g id="forms_normal_30_37" sketch:type="MSLayerGroup">
            <g id="Page-1">
                <g id="forms_normal_30_37" sketch:type="MSShapeGroup">
                    <g id="Page-1">
                        <g id="forms_normal_30_37">
                            <g id="Page-1">
                                <g id="forms_normal_30_37">
                                    <g id="Page-1">
                                        <g id="forms_normal_30_37">
                                            <g id="Group">
                                                <g id="Shape" transform="translate(1.000000, 1.000000)">
                                                    <g id="Group" fill="#5f6368" opacity="0.03">
                                                        <g id="Shape">
                                                            <path d="M28,9 L19,9 L19,0 L1,0 C0.3,0 0,1 0,1 L0,34 C0,34.5 0.5,35 1,35 L26.9,35 C27.5,35 28,34.5 28,34 L28,9 L28,9 Z"/>
                                                        </g>
                                                    </g>
                                                    <path d="M19,9 L28,9 L28,16 L19,9 L19,9 Z" fill="#DDDDDD"/>
                                                    <path d="M28,9 L19,9 L19,0 L28,9 L28,9 Z" fill="#EEEEEE"/>
                                                </g>
                                                <g id="Shape" fill="#5f6368" opacity="0.07">
                                                    <path d="M20,1 L29,10 L29,17 L29,35 C29,35.5 28.5,36 27.9,36 L2,36 C1.5,36 1,35.5 1,35 L1,2 C1,2 1.3,1 2,1 L20,1 L20,1 Z M20.4,0 L20,0 L2,0 C1,0 0.3,0.9 0.1,1.7 L0.1,1.8 L0.1,2 L0.1,35 C0.1,36 1.1,37 2.1,37 L28,37 C29.1,37 30.1,36 30.1,35 L30.1,17 L30.1,10 L30.1,9.6 L29.8,9.3 L20.8,0.3 L20.4,0 L20.4,0 Z"/>
                                                </g>
                                            </g>
                                            <path d="M20.4,15 L9.6,15 C8.7,15 8,15.7 8,16.6 L8,27.4 C8,28.3 8.7,29 9.6,29 L20.4,29 C21.3,29 22,28.3 22,27.4 L22,16.6 C22,15.7 21.3,15 20.4,15 L20.4,15 L20.4,15 Z M12,26 L10,26 L10,24 L12,24 L12,26 L12,26 Z M12,23 L10,23 L10,21 L12,21 L12,23 L12,23 Z M12,20 L10,20 L10,18 L12,18 L12,20 L12,20 Z M20,26 L13,26 L13,24 L20,24 L20,26 L20,26 Z M20,23 L13,23 L13,21 L20,21 L20,23 L20,23 Z M20,20 L13,20 L13,18 L20,18 L20,20 L20,20 Z" id="Shape" fill="#673AB7"/>
                                        </g>
                                    </g>
                                </g>
                            </g>
                        </g>
                    </g>
                </g>
                <g id="Artboard-1"/>
            </g>
        </g>
    </g>
</g><g transform="translate(54,306)"><defs>
    <path id="gear_24_a" d="M13.85 22.25h-3.7c-.74 0-1.36-.54-1.45-1.27l-.27-1.89c-.27-.14-.53-.29-.79-.46l-1.8.72c-.7.26-1.47-.03-1.81-.65L2.2 15.53c-.35-.66-.2-1.44.36-1.88l1.53-1.19c-.01-.15-.02-.3-.02-.46 0-.15.01-.31.02-.46l-1.52-1.19c-.59-.45-.74-1.26-.37-1.88l1.85-3.19c.34-.62 1.11-.9 1.79-.63l1.81.73c.26-.17.52-.32.78-.46l.27-1.91c.09-.7.71-1.25 1.44-1.25h3.7c.74 0 1.36.54 1.45 1.27l.27 1.89c.27.14.53.29.79.46l1.8-.72c.71-.26 1.48.03 1.82.65l1.84 3.18c.36.66.2 1.44-.36 1.88l-1.52 1.19c.01.15.02.3.02.46 0 .16-.01.31-.02.46l1.52 1.19c.56.45.72 1.23.37 1.86l-1.86 3.22c-.34.62-1.11.9-1.8.63l-1.8-.72c-.26.17-.52.32-.78.46l-.27 1.91c-.1.68-.72 1.22-1.46 1.22zm-3.23-2h2.76l.37-2.55.53-.22c.44-.18.88-.44 1.34-.78l.45-.34 2.38.96 1.38-2.4-2.03-1.58.07-.56c.03-.26.06-.51.06-.78s-.03-.53-.06-.78l-.07-.56 2.03-1.58-1.39-2.4-2.39.96-.45-.35c-.42-.32-.87-.58-1.33-.77l-.52-.22-.37-2.55h-2.76l-.37 2.55-.53.21c-.44.19-.88.44-1.34.79l-.45.33-2.38-.95-1.39 2.39 2.03 1.58-.07.56c-.03.26-.06.53-.06.79s.02.53.06.78l.07.56-2.03 1.58 1.38 2.4 2.39-.96.45.35c.43.33.86.58 1.33.77l.53.22.38 2.55zM12 15.5c1.9329966 0 3.5-1.5670034 3.5-3.5S13.9329966 8.5 12 8.5 8.5 10.0670034 8.5 12s1.5670034 3.5 3.5 3.5z"/>
  </defs>
  <g fill="none" fill-rule="evenodd">
    <mask id="gear_24_b" fill="#fff">
      <use xlink:href="#gear_24_a"/>
    </mask>
    <path fill="#5f6368" mask="url(#gear_24_b)" d="M0 0h24v24H0z"/>
  </g>
</g><g transform="translate(24,1047)"><defs>
    <path d="M0 0v14h20V0H0zm12 2v4H8V2h4zM2 2h4v4H2V2zm12 4V2h4v4h-4zM2 12V8h4v4H2zm6 0V8h4v4H8zm10 0h-4V8h4v4z" id="grid_view_24_a"/>
  </defs>
  <g transform="translate(2 5)" fill="none" fill-rule="evenodd">
    <mask id="grid_view_24_b" fill="#fff">
      <use xlink:href="#grid_view_24_a"/>
    </mask>
    <g mask="url(#grid_view_24_b)" fill="#5f6368">
      <path d="M-2-5h24v24H-2z"/>
    </g>
  </g>
</g><g transform="translate(24,885)"><g id="ic_x5F_list_x0D_">
</g>
<g id="ic_x5F_viewModule">
  <g>
    <path d="M4,11h5V5H4V11z M4,18h5v-6H4V18z M10,18h5v-6h-5V18z M16,18h5v-6h-5V18z M10,11h5V5h-5V11z M16,5v6h5V5H16z"/>
  </g>
  <rect fill="none" width="24" height="24"/>
</g>
<g id="ic_x5F_folder_x5F_flat">
</g>
</g><g transform="translate(48,1127)"><g id="ic_x5F_viewModule">
 <g>
  <path fill="#FFFFFF" d="M4,11h5V5H4V11z M4,18h5v-6H4V18z M10,18h5v-6h-5V18z M16,18h5v-6h-5V18z M10,11h5V5h-5V11z M16,5v6h5V5    H16z"/>
 </g>
 <polygon fill="none" points="24,24 0,24 0,0 24,0  "/>
</g>
</g><g transform="translate(0,716)"><defs>
    <path id="help_outline_24_a" d="M11 18h2v-2h-2v2zm1-16C6.48 2 2 6.48 2 12s4.48 10 10 10 10-4.48 10-10S17.52 2 12 2zm0 18c-4.41 0-8-3.59-8-8s3.59-8 8-8 8 3.59 8 8-3.59 8-8 8zm0-14c-2.21 0-4 1.79-4 4h2c0-1.1.9-2 2-2s2 .9 2 2c0 2-3 1.75-3 5h2c0-2.25 3-2.5 3-5 0-2.21-1.79-4-4-4z"/>
  </defs>
  <g fill="none" fill-rule="evenodd">
    <mask id="help_outline_24_b" fill="#fff">
      <use xlink:href="#help_outline_24_a"/>
    </mask>
    <g mask="url(#help_outline_24_b)" fill="#5f6368">
      <path d="M0 0h24v24H0z"/>
    </g>
  </g>
</g><g transform="translate(48,0)"><path d="M0 0h24v24H0z" fill="none"/>
    <path d="M12 2C6.48 2 2 6.48 2 12s4.48 10 10 10 10-4.48 10-10S17.52 2 12 2zm1 15h-2v-6h2v6zm0-8h-2V7h2v2z"/>
</g><g transform="translate(24,1127)"><defs>
    <path d="M11 7h2v2h-2V7zm0 4h2v6h-2v-6zm1-9C6.48 2 2 6.48 2 12s4.48 10 10 10 10-4.48 10-10S17.52 2 12 2zm0 18c-4.41 0-8-3.59-8-8s3.59-8 8-8 8 3.59 8 8-3.59 8-8 8z" id="info_outline_24_a"/>
  </defs>
  <g fill="none" fill-rule="evenodd">
    <mask id="info_outline_24_b" fill="#fff">
      <use xlink:href="#info_outline_24_a"/>
    </mask>
    <g mask="url(#info_outline_24_b)" fill="#5f6368">
      <path d="M0 0h24v24H0z"/>
    </g>
  </g>
</g><g transform="translate(54,1171)"><path fill="none" d="M3 4h18v16H3z"/>
  <path fill="#5f6368" d="M13.857 6c0-1.104-.896-2-2-2-1.105 0-2 .896-2 2s.895 2 2 2c1.104 0 2-.896 2-2zm0 12c0-1.104-.896-2-2-2-1.105 0-2 .896-2 2s.895 2 2 2c1.104 0 2-.896 2-2zm0-6c0-1.104-.896-2-2-2-1.105 0-2 .896-2 2s.895 2 2 2c1.104 0 2-.896 2-2z"/>
  <path fill="none" d="M7.857 0h8v24h-8z"/>
</g><g transform="translate(24,1195)"><path fill="#FFFFFF" d="M12 8c1.1 0 2-.9 2-2s-.9-2-2-2-2 .9-2 2 .9 2 2 2zm0 2c-1.1 0-2 .9-2 2s.9 2 2 2 2-.9 2-2-.9-2-2-2zm0 6c-1.1 0-2 .9-2 2s.9 2 2 2 2-.9 2-2-.9-2-2-2z"/>
</g><g transform="translate(0,112)"><defs>
    <path d="M0 0v14h18V0H0zm4 2v2H2V2h2zM2 8V6h2v2H2zm0 2h2v2H2v-2zm14 2H6v-2h10v2zm0-4H6V6h10v2zm0-4H6V2h10v2z" id="list_view_24_a"/>
  </defs>
  <g transform="translate(3 5)" fill="none" fill-rule="evenodd">
    <mask id="list_view_24_b" fill="#fff">
      <use xlink:href="#list_view_24_a"/>
    </mask>
    <g mask="url(#list_view_24_b)" fill="#5f6368">
      <path d="M-3-5h24v24H-3z"/>
    </g>
  </g>
</g><g transform="translate(0,1342)"><g id="ic_x5F_list_x0D_">
  <g>
    <path d="M3,13h3v-3H3V13z M3,18h3v-3H3V18z M3,8h3V5H3V8z M8,13h13v-3H8V13z M8,18h13v-3H8V18z M8,5v3h13V5H8z"/>
  </g>
  <rect fill="none" width="24" height="24"/>
</g>
<g id="ic_x5F_viewModule">
</g>
<g id="ic_x5F_folder_x5F_flat">
</g>
</g><g transform="translate(24,24)"><g id="ic_x5F_list_x0D_">
 <g>
  <path fill="#FFFFFF" d="M3,13h3v-3H3V13z M3,18h3v-3H3V18z M3,8h3V5H3V8z M8,13h13v-3H8V13z M8,18h13v-3H8V18z M8,5v3h13V5H8z"/>
 </g>
 <polygon fill="none" points="24,24 0,24 0,0 24,0  "/>
</g>
</g><g transform="translate(0,1171)"><defs>
    <path id="magnifying_glass_24_a" d="M20.745 19.255l-5.73-5.73c.77-1.07 1.24-2.36 1.24-3.77 0-3.59-2.91-6.5-6.5-6.5s-6.5 2.91-6.5 6.5 2.91 6.5 6.5 6.5c1.41 0 2.7-.47 3.77-1.24l5.73 5.73 1.49-1.49zm-15.49-9.5c0-2.49 2.01-4.5 4.5-4.5s4.5 2.01 4.5 4.5-2.01 4.5-4.5 4.5-4.5-2.01-4.5-4.5z"/>
  </defs>
  <g fill="none" fill-rule="evenodd">
    <mask id="magnifying_glass_24_b" fill="#fff">
      <use xlink:href="#magnifying_glass_24_a"/>
    </mask>
    <use fill="#5f6368" fill-rule="nonzero" xlink:href="#magnifying_glass_24_a"/>
    <path fill="#5f6368" mask="url(#magnifying_glass_24_b)" d="M0 0h24v24H0z"/>
  </g>
</g><g transform="translate(0,439)"><path fill="none" d="M0,0h24v24H0V0z"/>
<path d="M3,18h18v-2H3V18z M3,13h18v-2H3V13z M3,6v2h18V6H3z"/>
</g><g transform="translate(0,136)"><path fill="none" d="M0,0h24v24H0V0z"/>
<path fill="#FFFFFF" d="M3,18h18v-2H3V18z M3,13h18v-2H3V13z M3,6v2h18V6H3z"/>
</g><g transform="translate(24,922)"><g>
    <defs>
      <path id="nav_classic_sites_24_SVGID_1_" d="M21.5,21.5h-19C1.7,21.5,1,20.8,1,20V4c0-0.8,0.7-1.5,1.5-1.5h19C22.3,2.5,23,3.2,23,4v16                              C23,20.8,22.3,21.5,21.5,21.5z"/>
    </defs>
    <clipPath id="nav_classic_sites_24_SVGID_2_">
      <use xlink:href="#nav_classic_sites_24_SVGID_1_" overflow="visible"/>
    </clipPath>
    <g clip-path="url(#nav_classic_sites_24_SVGID_2_)">
      <path fill="#4285F4" d="M1,5.5h22v8H1V5.5z"/>
      <path fill="#E1E1E1" d="M1,13.5h11v8H1V13.5z"/>
      <path fill="#3367D6" d="M12,13.5h11v8H12V13.5z"/>
      <path fill="#C2C2C2" d="M1,2.5h22v3H1V2.5z"/>
      <path fill="#FFFFFF" fill-opacity="0.2" d="M21.5,2.5h-19C1.7,2.5,1,3.2,1,4v0.1c0-0.8,0.7-1.5,1.5-1.5h19c0.8,0,1.5,0.7,1.5,1.5                                                  V4C23,3.2,22.3,2.5,21.5,2.5z"/>
      <path fill="#212121" fill-opacity="0.1" d="M2.5,21.4c-0.8,0-1.5-0.7-1.5-1.5V20c0,0.8,0.7,1.5,1.5,1.5H12v-0.1H2.5z"/>
      <path fill="#1A237E" fill-opacity="0.2" d="M21.5,21.4H12v0.1h9.5c0.8,0,1.5-0.7,1.5-1.5v-0.1C23,20.7,22.3,21.4,21.5,21.4z"/>
      <circle fill="#EEEEEE" cx="3" cy="4" r="0.5"/>
      <circle fill="#EEEEEE" cx="5" cy="4" r="0.5"/>
    </g>
  </g>
  <g>
    <defs>
      <path id="nav_classic_sites_24_SVGID_3_" d="M21.5,21.5h-19C1.7,21.5,1,20.8,1,20V4c0-0.8,0.7-1.5,1.5-1.5h19C22.3,2.5,23,3.2,23,4v16                              C23,20.8,22.3,21.5,21.5,21.5z"/>
    </defs>
    <clipPath id="nav_classic_sites_24_SVGID_4_">
      <use xlink:href="#nav_classic_sites_24_SVGID_3_" overflow="visible"/>
    </clipPath>
    <linearGradient id="nav_classic_sites_24_SVGID_5_" gradientUnits="userSpaceOnUse" x1="6.4749" y1="26.0252" x2="14.4837" y2="18.0162" gradientTransform="matrix(1 0 0 -1 0 26)">
      <stop offset="0" style="stop-color:#1A237E;stop-opacity:0.2"/>
      <stop offset="1" style="stop-color:#1A237E;stop-opacity:2.000000e-02"/>
    </linearGradient>
    <path clip-path="url(#nav_classic_sites_24_SVGID_4_)" fill="url(#nav_classic_sites_24_SVGID_5_)" d="M23,13.5H9l-8-8h22V13.5z"/>
  </g>
  <g>
    <defs>
      <path id="nav_classic_sites_24_SVGID_6_" d="M21.5,21.5h-19C1.7,21.5,1,20.8,1,20V4c0-0.8,0.7-1.5,1.5-1.5h19C22.3,2.5,23,3.2,23,4v16                              C23,20.8,22.3,21.5,21.5,21.5z"/>
    </defs>
    <clipPath id="nav_classic_sites_24_SVGID_7_">
      <use xlink:href="#nav_classic_sites_24_SVGID_6_" overflow="visible"/>
    </clipPath>
    <path clip-path="url(#nav_classic_sites_24_SVGID_7_)" fill="#BDBDBD" d="M2.5,18h8v-1h-8V18z M2.5,20h5v-1h-5V20z M2.5,15v1h8v-1H2.5z"/>
  </g>
  <g>
    <defs>
      <path id="nav_classic_sites_24_SVGID_8_" d="M21.5,21.5h-19C1.7,21.5,1,20.8,1,20V4c0-0.8,0.7-1.5,1.5-1.5h19C22.3,2.5,23,3.2,23,4v16                              C23,20.8,22.3,21.5,21.5,21.5z"/>
    </defs>
    <clipPath id="nav_classic_sites_24_SVGID_9_">
      <use xlink:href="#nav_classic_sites_24_SVGID_8_" overflow="visible"/>
    </clipPath>
    <path clip-path="url(#nav_classic_sites_24_SVGID_9_)" fill="#1A237E" fill-opacity="0.1" d="M1,5.5h22v0.1H1V5.5z"/>
  </g>
  <radialGradient id="nav_classic_sites_24_SVGID_10_" cx="1.4635" cy="23.1554" r="27.8766" gradientTransform="matrix(1 0 0 -1 0 26)" gradientUnits="userSpaceOnUse">
    <stop offset="0" style="stop-color:#FFFFFF;stop-opacity:0.1"/>
    <stop offset="1" style="stop-color:#FFFFFF;stop-opacity:0"/>
  </radialGradient>
  <path fill="url(#nav_classic_sites_24_SVGID_10_)" d="M21.5,21.5h-19C1.7,21.5,1,20.8,1,20V4c0-0.8,0.7-1.5,1.5-1.5h19C22.3,2.5,23,3.2,23,4v16                                   C23,20.8,22.3,21.5,21.5,21.5z"/>
  <path fill="none" d="M0,0h24v24H0V0z"/>
</g><g transform="translate(24,1095)"><radialGradient gradientUnits="userSpaceOnUse" gradientTransform="matrix(0.1667 0 0 -0.1667 -319.1667 -513.5)" r="223.013" cy="-3103.7568" cx="1926.7079" id="nav_classic_sites_32_SITESID_10_">
  <stop stop-color="#FFFFFF" stop-opacity="0.1" offset="0"/>
  <stop stop-color="#FFFFFF" stop-opacity="0" offset="1"/>
 </radialGradient>
 <g>
  <title>Layer 1</title>
  <g id="nav_classic_sites_32_svg_1">
   <defs>
    <path d="m28.7,28.7l-25.4,0c-1.1,0 -2,-0.9 -2,-2l0,-21.4c0,-1.1 0.9,-2 2,-2l25.3,0c1.1,0 2,0.9 2,2l0,21.3c0.1,1.2 -0.8,2.1 -1.9,2.1z" id="nav_classic_sites_32_SITESID_1_"/>
   </defs>
   <clipPath id="nav_classic_sites_32_SITESID_2_">
    <use id="nav_classic_sites_32_svg_2" xlink:href="#nav_classic_sites_32_SITESID_1_"/>
   </clipPath>
   <g id="nav_classic_sites_32_svg_3" clip-path="url(#nav_classic_sites_32_SITESID_2_)">
    <path id="nav_classic_sites_32_svg_4" d="m1.3,7.3l29.3,0l0,10.7l-29.3,0l0,-10.7z" fill="#4285F4"/>
    <path id="nav_classic_sites_32_svg_5" d="m1.3,18l14.7,0l0,10.7l-14.7,0l0,-10.7z" fill="#E1E1E1"/>
    <path id="nav_classic_sites_32_svg_6" d="m16,18l14.7,0l0,10.7l-14.7,0l0,-10.7z" fill="#3367D6"/>
    <path id="nav_classic_sites_32_svg_7" d="m1.3,3.3l29.3,0l0,4l-29.3,0l0,-4z" fill="#C2C2C2"/>
    <path id="nav_classic_sites_32_svg_8" d="m28.7,3.3l-25.4,0c-1.1,0 -2,0.9 -2,2l0,0.2c0,-1.1 0.9,-2 2,-2l25.3,0c1.1,0 2,0.9 2,2l0,-0.2c0.1,-1.1 -0.8,-2 -1.9,-2z" fill-opacity="0.2" fill="#FFFFFF"/>
    <path id="nav_classic_sites_32_svg_9" d="m3.3,28.5c-1.1,0 -2,-0.9 -2,-2l0,0.2c0,1.1 0.9,2 2,2l12.7,0l0,-0.2l-12.7,0z" fill-opacity="0.1" fill="#212121"/>
    <path id="nav_classic_sites_32_nav_classic_sites_32_svg_10" d="m28.7,28.5l-12.7,0l0,0.2l12.7,0c1.1,0 2,-0.9 2,-2l0,-0.2c0,1.1 -0.9,2 -2,2z" fill-opacity="0.2" fill="#1A237E"/>
    <circle id="nav_classic_sites_32_nav_classic_sites_32_svg_11" r="0.7" cy="5.3" cx="4" fill="#EEEEEE"/>
    <circle id="nav_classic_sites_32_nav_classic_sites_32_svg_12" r="0.7" cy="5.3" cx="6.7" fill="#EEEEEE"/>
   </g>
  </g>
  <g id="nav_classic_sites_32_nav_classic_sites_32_svg_13">
   <defs>
    <path d="m28.7,28.7l-25.4,0c-1.1,0 -2,-0.9 -2,-2l0,-21.4c0,-1.1 0.9,-2 2,-2l25.3,0c1.1,0 2,0.9 2,2l0,21.3c0.1,1.2 -0.8,2.1 -1.9,2.1z" id="nav_classic_sites_32_SITESID_3_"/>
   </defs>
   <clipPath id="nav_classic_sites_32_SITESID_4_">
    <use id="nav_classic_sites_32_nav_classic_sites_32_svg_14" xlink:href="#nav_classic_sites_32_SITESID_3_"/>
   </clipPath>
   <linearGradient y2="0.322413" x2="0.614942" y1="-0.675793" x1="0.251655" id="nav_classic_sites_32_SITESID_5_">
    <stop stop-color="#1A237E" stop-opacity="0.2" offset="0"/>
    <stop stop-color="#1A237E" stop-opacity="0.02" offset="1"/>
   </linearGradient>
   <path id="nav_classic_sites_32_nav_classic_sites_32_svg_15" d="m30.7,18l-18.7,0l-10.7,-10.7l29.3,0l0,10.7l0.1,0z" fill="url(#nav_classic_sites_32_SITESID_5_)" clip-path="url(#nav_classic_sites_32_SITESID_4_)"/>
  </g>
  <g id="nav_classic_sites_32_nav_classic_sites_32_svg_16">
   <defs>
    <path d="m28.7,28.7l-25.4,0c-1.1,0 -2,-0.9 -2,-2l0,-21.4c0,-1.1 0.9,-2 2,-2l25.3,0c1.1,0 2,0.9 2,2l0,21.3c0.1,1.2 -0.8,2.1 -1.9,2.1z" id="nav_classic_sites_32_SITESID_6_"/>
   </defs>
   <clipPath id="nav_classic_sites_32_SITESID_7_">
    <use id="nav_classic_sites_32_nav_classic_sites_32_svg_17" xlink:href="#nav_classic_sites_32_SITESID_6_"/>
   </clipPath>
   <path id="nav_classic_sites_32_nav_classic_sites_32_svg_18" d="m3.3,24l10.7,0l0,-1.3l-10.7,0l0,1.3zm0,2.7l6.7,0l0,-1.3l-6.7,0l0,1.3zm0,-6.7l0,1.3l10.7,0l0,-1.3l-10.7,0z" fill="#BDBDBD" clip-path="url(#nav_classic_sites_32_SITESID_7_)"/>
  </g>
  <g id="nav_classic_sites_32_nav_classic_sites_32_svg_19">
   <defs>
    <path d="m28.7,28.7l-25.4,0c-1.1,0 -2,-0.9 -2,-2l0,-21.4c0,-1.1 0.9,-2 2,-2l25.3,0c1.1,0 2,0.9 2,2l0,21.3c0.1,1.2 -0.8,2.1 -1.9,2.1z" id="nav_classic_sites_32_SITESID_8_"/>
   </defs>
   <clipPath id="nav_classic_sites_32_SITESID_9_">
    <use id="nav_classic_sites_32_nav_classic_sites_32_svg_20" xlink:href="#nav_classic_sites_32_SITESID_8_"/>
   </clipPath>
   <path id="nav_classic_sites_32_nav_classic_sites_32_svg_21" d="m1.3,7.3l29.3,0l0,0.2l-29.3,0l0,-0.2z" fill-opacity="0.1" fill="#1A237E" clip-path="url(#nav_classic_sites_32_SITESID_9_)"/>
  </g>
  <path id="nav_classic_sites_32_nav_classic_sites_32_svg_22" d="m28.7,28.7l-25.4,0c-1.1,0 -2,-0.9 -2,-2l0,-21.4c0,-1.1 0.9,-2 2,-2l25.3,0c1.1,0 2,0.9 2,2l0,21.3c0.1,1.2 -0.8,2.1 -1.9,2.1z" fill="url(#nav_classic_sites_32_SITESID_10_)"/>
  <path id="nav_classic_sites_32_nav_classic_sites_32_svg_23" d="m0,0l32,0l0,32l-32,0l0,-32z" fill="none"/>
 </g>
</g><g transform="translate(0,1195)"><g>
  <g>
    <g>
      <g>
        <g>
          <g>
            <defs>
              <path id="SVGID_1_" d="M14,1H5.5C4.7,1,4,1.7,4,2.5v19C4,22.3,4.7,23,5.5,23h13c0.8,0,1.5-0.7,1.5-1.5V7L14,1z"/>
            </defs>
            <clipPath id="SVGID_2_">
              <use xlink:href="#SVGID_1_" overflow="visible"/>
            </clipPath>
            <path clip-path="url(#SVGID_2_)" fill="#4285F4" d="M14,1H5.5C4.7,1,4,1.7,4,2.5v19C4,22.3,4.7,23,5.5,23h13               c0.8,0,1.5-0.7,1.5-1.5V7l-3.5-2.5L14,1z"/>
          </g>
        </g>
      </g>
      <g>
        <g>
          <g>
            <defs>
              <path id="SVGID_3_" d="M14,1H5.5C4.7,1,4,1.7,4,2.5v19C4,22.3,4.7,23,5.5,23h13c0.8,0,1.5-0.7,1.5-1.5V7L14,1z"/>
            </defs>
            <clipPath id="SVGID_4_">
              <use xlink:href="#SVGID_3_" overflow="visible"/>
            </clipPath>
            <path clip-path="url(#SVGID_4_)" fill="#F1F1F1" d="M8,17h8v-1H8V17z M8,19h6v-1H8V19z M8,12v1h8v-1H8z M8,15h8v-1H8V15z"/>
          </g>
        </g>
      </g>
      <g>
        <g>
          <g>
            <defs>
              <path id="SVGID_5_" d="M14,1H5.5C4.7,1,4,1.7,4,2.5v19C4,22.3,4.7,23,5.5,23h13c0.8,0,1.5-0.7,1.5-1.5V7L14,1z"/>
            </defs>
            <clipPath id="SVGID_6_">
              <use xlink:href="#SVGID_5_" overflow="visible"/>
            </clipPath>
            <g clip-path="url(#SVGID_6_)">
              <g>
                <path fill="#A1C2FA" d="M14,1v4.5C14,6.3,14.7,7,15.5,7H20L14,1z"/>
              </g>
            </g>
          </g>
        </g>
      </g>
      <g>
        <g>
          <g>
            <defs>
              <path id="SVGID_7_" d="M14,1H5.5C4.7,1,4,1.7,4,2.5v19C4,22.3,4.7,23,5.5,23h13c0.8,0,1.5-0.7,1.5-1.5V7L14,1z"/>
            </defs>
            <clipPath id="SVGID_8_">
              <use xlink:href="#SVGID_7_" overflow="visible"/>
            </clipPath>
          </g>
        </g>
      </g>
      <g>
        <g>
          <g>
            <defs>
              <path id="SVGID_9_" d="M14,1H5.5C4.7,1,4,1.7,4,2.5v19C4,22.3,4.7,23,5.5,23h13c0.8,0,1.5-0.7,1.5-1.5V7L14,1z"/>
            </defs>
            <clipPath id="SVGID_10_">
              <use xlink:href="#SVGID_9_" overflow="visible"/>
            </clipPath>
          </g>
        </g>
      </g>
      <g>
        <g>
          <g>
            <defs>
              <path id="SVGID_11_" d="M14,1H5.5C4.7,1,4,1.7,4,2.5v19C4,22.3,4.7,23,5.5,23h13c0.8,0,1.5-0.7,1.5-1.5V7L14,1z"/>
            </defs>
            <clipPath id="SVGID_12_">
              <use xlink:href="#SVGID_11_" overflow="visible"/>
            </clipPath>
          </g>
        </g>
      </g>
    </g>
  </g>
</g>
</g><g transform="translate(0,415)"><g id="ic_x5F_list_x0D_">
</g>
<g id="ic_x5F_viewModule">
</g>
<g id="ic_x5F_folder_x5F_flat">
</g>
<rect x="2" y="2" fill="none" width="20" height="19"/>
<rect fill="none" width="24" height="24"/>
<polygon fill="#0F9D58" points="5.174,20 2,14.031 8.624,3 12,8.621 "/>
<polygon fill="#4285F4" points="5.174,20 8.736,14.031 22,14.031 18.826,20 "/>
<polygon fill="#F4B400" points="22,14.031 15.25,14.031 8.624,3 15.375,3 "/>
</g><g transform="translate(0,665)"><!-- Generator: Sketch 3.3.2 (12043) - http://www.bohemiancoding.com/sketch -->
    <title>Slice 1</title>
    <desc>Created with Sketch.</desc>
    <defs>
        <linearGradient x1="50.3459821%" y1="7.97568182%" x2="50.3459821%" y2="100.400682%" id="linearGradient-1">
            <stop stop-color="#311B92" stop-opacity="0.2" offset="0%"/>
            <stop stop-color="#311B92" stop-opacity="0.02" offset="100%"/>
        </linearGradient>
        <radialGradient cx="3.16804688%" cy="2.71738095%" fx="3.16804688%" fy="2.71738095%" r="1289.90313%" id="radialGradient-2">
            <stop stop-color="#FFFFFF" stop-opacity="0.1" offset="0%"/>
            <stop stop-color="#FFFFFF" stop-opacity="0" offset="100%"/>
        </radialGradient>
    </defs>
    <g xmlns:sketch="http://www.bohemiancoding.com/sketch/ns" id="Page-1" stroke="none" stroke-width="1" fill="none" fill-rule="evenodd" sketch:type="MSPage">
        <g id="nav_forms_24" sketch:type="MSLayerGroup" transform="translate(4.000000, 1.000000)">
            <g id="Page-1" sketch:type="MSShapeGroup">
                <g id="nav_forms_24">
                    <g id="Page-1">
                        <g id="nav_forms_24">
                            <g id="Group">
                                <g id="Shape">
                                    <path d="M10,0 L1.5,0 C0.7,0 0,0.7 0,1.5 L0,19.5 C0,20.3 0.7,21 1.5,21 L14.5,21 C15.3,21 16,20.3 16,19.5 L16,6 L12.5,3.5 L10,0 L10,0 Z" fill="#673AB7"/>
                                    <path d="M6,15.5 L12,15.5 L12,14.5 L6,14.5 L6,15.5 L6,15.5 Z M6,9 L6,10 L12,10 L12,9 L6,9 L6,9 Z M5.1,9.49999981 C5.1,9.89999981 4.8,10.2999998 4.3,10.2999998 C3.8,10.2999998 3.5,9.99999981 3.5,9.49999981 C3.5,8.99999981 3.8,8.69999981 4.3,8.69999981 C4.8,8.69999981 5.1,9.09999981 5.1,9.49999981 L5.1,9.49999981 L5.1,9.49999981 Z M5.1,12.3 C5.1,12.7 4.8,13.1 4.3,13.1 C3.8,13.1 3.5,12.8 3.5,12.3 C3.5,11.8 3.8,11.5 4.3,11.5 C4.8,11.5 5.1,11.9 5.1,12.3 L5.1,12.3 L5.1,12.3 Z M5.1,15 C5.1,15.4 4.8,15.8 4.3,15.8 C3.8,15.8 3.5,15.5 3.5,15 C3.5,14.5 3.8,14.2 4.3,14.2 C4.8,14.2 5.1,14.6 5.1,15 L5.1,15 L5.1,15 Z M6,13 L12,13 L12,12 L6,12 L6,13 L6,13 Z" fill="#F1F1F1"/>
                                    <path d="M10.4,5.6 L16,11.1 L16,6 L10.4,5.6 L10.4,5.6 Z" fill="url(#linearGradient-1)"/>
                                    <path d="M10,0 L10,4.5 C10,5.3 10.7,6 11.5,6 L16,6 L10,0 L10,0 Z" fill="#B39DDB"/>
                                    <path d="M1.5,0 C0.7,0 0,0.7 0,1.5 L0,1.6 C0,0.8 0.7,0.1 1.5,0.1 L10,0.1 L10,0 L1.5,0 L1.5,0 Z" fill-opacity="0.2" fill="#FFFFFF"/>
                                    <path d="M14.5,20.9 L1.5,20.9 C0.7,20.9 0,20.2 0,19.4 L0,19.5 C0,20.3 0.7,21 1.5,21 L14.5,21 C15.3,21 16,20.3 16,19.5 L16,19.4 C16,20.2 15.3,20.9 14.5,20.9 L14.5,20.9 L14.5,20.9 Z" fill-opacity="0.2" fill="#311B92"/>
                                    <path d="M11.5,6 C10.7,6 10,5.3 10,4.5 L10,4.6 C10,5.4 10.7,6.1 11.5,6.1 L16,6.1 L16,6 L11.5,6 L11.5,6 Z" fill-opacity="0.1" fill="#311B92"/>
                                </g>
                                <path d="M10,0 L1.5,0 C0.7,0 0,0.7 0,1.5 L0,19.5 C0,20.3 0.7,21 1.5,21 L14.5,21 C15.3,21 16,20.3 16,19.5 L16,6 L10,0 L10,0 Z" id="Shape" fill="url(#radialGradient-2)"/>
                            </g>
                        </g>
                    </g>
                </g>
            </g>
        </g>
    </g>
</g><g transform="translate(24,415)"><path d="M0 0h24v24H0z" fill="none"/>
    <path d="M12 2C6.48 2 2 6.48 2 12s4.48 10 10 10 10-4.48 10-10S17.52 2 12 2zm1 17h-2v-2h2v2zm2.07-7.75l-.9.92C13.45 12.9 13 13.5 13 15h-2v-.5c0-1.1.45-2.1 1.17-2.83l1.24-1.26c.37-.36.59-.86.59-1.41 0-1.1-.9-2-2-2s-2 .9-2 2H8c0-2.21 1.79-4 4-4s4 1.79 4 4c0 .88-.36 1.68-.93 2.25z"/>
</g><g transform="translate(0,197)"><g>
 <g>
  <polygon fill="#231F20" points="7,6 19,6 19,18 7,18 7,14 5,14 5,20 21,20 21,4 5,4 5,10 7,10   "/>
 </g>
 <line fill="#FFFFFF" x1="8" y1="10" x2="8" y2="6"/>
 <g>
  <polygon fill="#231F20" points="12.5,7 11.188,8.281 15.167,11.979 11.281,15.656 12.5,16.899 16.035,13.363 17.449,11.949   "/>
  <rect x="3" y="11" fill="#231F20" width="12" height="2"/>
 </g>
</g>
</g><g transform="translate(24,804)"><path d="M19.43 12.98c.04-.32.07-.64.07-.98s-.03-.66-.07-.98l2.11-1.65c.19-.15.24-.42.12-.64l-2-3.46c-.12-.22-.39-.3-.61-.22l-2.49 1c-.52-.4-1.08-.73-1.69-.98l-.38-2.65A.488.488 0 0 0 14 2h-4c-.25 0-.46.18-.49.42l-.38 2.65c-.61.25-1.17.59-1.69.98l-2.49-1c-.23-.09-.49 0-.61.22l-2 3.46c-.13.22-.07.49.12.64l2.11 1.65c-.04.32-.07.65-.07.98s.03.66.07.98l-2.11 1.65c-.19.15-.24.42-.12.64l2 3.46c.12.22.39.3.61.22l2.49-1c.52.4 1.08.73 1.69.98l.38 2.65c.03.24.24.42.49.42h4c.25 0 .46-.18.49-.42l.38-2.65c.61-.25 1.17-.59 1.69-.98l2.49 1c.23.09.49 0 .61-.22l2-3.46c.12-.22.07-.49-.12-.64l-2.11-1.65zM12 15.5c-1.93 0-3.5-1.57-3.5-3.5s1.57-3.5 3.5-3.5 3.5 1.57 3.5 3.5-1.57 3.5-3.5 3.5z"/>
</g><g transform="translate(0,306)"><g>
 <g>
  <g>
   <g>
    <g>
     <g>
      <defs>
       <path id="SVGID_1_" d="M14,1H5.5C4.7,1,4,1.7,4,2.5v19C4,22.3,4.7,23,5.5,23h13c0.8,0,1.5-0.7,1.5-1.5V7L14,1z"/>
      </defs>
      <clipPath id="SVGID_2_">
       <use xlink:href="#SVGID_1_" overflow="visible"/>
      </clipPath>
      <path clip-path="url(#SVGID_2_)" fill="#0F9D58" d="M14,1H5.5C4.7,1,4,1.7,4,2.5v19C4,22.3,4.7,23,5.5,23h13        c0.8,0,1.5-0.7,1.5-1.5V7l-3.5-2.5L14,1z"/>
     </g>
    </g>
   </g>
  </g>
  <g>
   <g>
    <g>
     <g>
      <defs>
       <path id="SVGID_3_" d="M14,1H5.5C4.7,1,4,1.7,4,2.5v19C4,22.3,4.7,23,5.5,23h13c0.8,0,1.5-0.7,1.5-1.5V7L14,1z"/>
      </defs>
      <clipPath id="SVGID_4_">
       <use xlink:href="#SVGID_3_" overflow="visible"/>
      </clipPath>
      <path clip-path="url(#SVGID_4_)" fill="#F1F1F1" d="M8,11.8V19h8v-7.2H8z M11.5,18H9v-1.2h2.5V18z M11.5,16H9v-1.2h2.5V16z         M11.5,14H9v-1.2h2.5V14z M15,18h-2.5v-1.2H15V18z M15,16h-2.5v-1.2H15V16z M15,14h-2.5v-1.2H15V14z"/>
     </g>
    </g>
   </g>
  </g>
  <g>
   <g>
    <g>
     <g>
      <defs>
       <path id="SVGID_5_" d="M14,1H5.5C4.7,1,4,1.7,4,2.5v19C4,22.3,4.7,23,5.5,23h13c0.8,0,1.5-0.7,1.5-1.5V7L14,1z"/>
      </defs>
      <clipPath id="SVGID_6_">
       <use xlink:href="#SVGID_5_" overflow="visible"/>
      </clipPath>
      <g clip-path="url(#SVGID_6_)">
       <g>
        <path fill="#87CEAC" d="M14,1v4.5C14,6.3,14.7,7,15.5,7H20L14,1z"/>
       </g>
      </g>
     </g>
    </g>
   </g>
  </g>
 </g>
</g>
</g><g transform="translate(0,1294)"><rect fill="none" width="24" height="24"/>
  <g>
    <g>
      <g>
        <defs>
          <path id="nav_sites_24_SVGID_1_" d="M14,1H5.5C4.7,1,4,1.7,4,2.5v19C4,22.3,4.7,23,5.5,23h13c0.8,0,1.5-0.7,1.5-1.5V7L14,1z"/>
        </defs>
        <clipPath id="nav_sites_24_SVGID_2_">
          <use xlink:href="#nav_sites_24_SVGID_1_" overflow="visible"/>
        </clipPath>
        <path clip-path="url(#nav_sites_24_SVGID_2_)" fill="#3F51B5" d="M14,1H5.5C4.7,1,4,1.7,4,2.5v19C4,22.3,4.7,23,5.5,23h13                                                            c0.8,0,1.5-0.7,1.5-1.5V7l-3.5-2.5L14,1z"/>
      </g>
      <g>
        <defs>
          <path id="nav_sites_24_SVGID_3_" d="M14,1H5.5C4.7,1,4,1.7,4,2.5v19C4,22.3,4.7,23,5.5,23h13c0.8,0,1.5-0.7,1.5-1.5V7L14,1z"/>
        </defs>
        <clipPath id="nav_sites_24_SVGID_4_">
          <use xlink:href="#nav_sites_24_SVGID_3_" overflow="visible"/>
        </clipPath>
        <linearGradient id="nav_sites_24_SVGID_5_" gradientUnits="userSpaceOnUse" x1="4526.7549" y1="-6869.3091" x2="4526.7549" y2="-6909.9761" gradientTransform="matrix(0.125 0 0 -0.125 -548.625 -851.625)">
          <stop offset="0" style="stop-color:#1A237E;stop-opacity:0.2"/>
          <stop offset="1" style="stop-color:#1A237E;stop-opacity:2.000000e-02"/>
        </linearGradient>
        <polygon clip-path="url(#nav_sites_24_SVGID_4_)" fill="url(#nav_sites_24_SVGID_5_)" points="14.4,6.6 20,12.1 20,7"/>
      </g>
      <g>
        <defs>
          <path id="nav_sites_24_SVGID_6_" d="M14,1H5.5C4.7,1,4,1.7,4,2.5v19C4,22.3,4.7,23,5.5,23h13c0.8,0,1.5-0.7,1.5-1.5V7L14,1z"/>
        </defs>
        <clipPath id="nav_sites_24_SVGID_7_">
          <use xlink:href="#nav_sites_24_SVGID_6_" overflow="visible"/>
        </clipPath>
        <g clip-path="url(#nav_sites_24_SVGID_7_)">
          <g>
            <path fill="#9FA8DA" d="M14,1v4.5C14,6.3,14.7,7,15.5,7H20L14,1z"/>
          </g>
        </g>
      </g>
      <g>
        <defs>
          <path id="nav_sites_24_SVGID_8_" d="M14,1H5.5C4.7,1,4,1.7,4,2.5v19C4,22.3,4.7,23,5.5,23h13c0.8,0,1.5-0.7,1.5-1.5V7L14,1z"/>
        </defs>
        <clipPath id="nav_sites_24_SVGID_9_">
          <use xlink:href="#nav_sites_24_SVGID_8_" overflow="visible"/>
        </clipPath>
        <path clip-path="url(#nav_sites_24_SVGID_9_)" fill="#FFFFFF" fill-opacity="0.2" d="M5.5,1C4.7,1,4,1.7,4,2.5v0.1c0-0.8,0.7-1.5,1.5-1.5H14V1                                                                               H5.5z"/>
      </g>
      <g>
        <defs>
          <path id="nav_sites_24_SVGID_10_" d="M14,1H5.5C4.7,1,4,1.7,4,2.5v19C4,22.3,4.7,23,5.5,23h13c0.8,0,1.5-0.7,1.5-1.5V7L14,1z"/>
        </defs>
        <clipPath id="nav_sites_24_SVGID_11_">
          <use xlink:href="#nav_sites_24_SVGID_10_" overflow="visible"/>
        </clipPath>
        <path clip-path="url(#nav_sites_24_SVGID_11_)" fill="#1A237E" fill-opacity="0.2" d="M18.5,22.9h-13c-0.8,0-1.5-0.7-1.5-1.5v0.1                                                                                C4,22.3,4.7,23,5.5,23h13c0.8,0,1.5-0.7,1.5-1.5v-0.1C20,22.2,19.3,22.9,18.5,22.9z"/>
      </g>
      <g>
        <defs>
          <path id="nav_sites_24_SVGID_12_" d="M14,1H5.5C4.7,1,4,1.7,4,2.5v19C4,22.3,4.7,23,5.5,23h13c0.8,0,1.5-0.7,1.5-1.5V7L14,1z"/>
        </defs>
        <clipPath id="nav_sites_24_SVGID_13_">
          <use xlink:href="#nav_sites_24_SVGID_12_" overflow="visible"/>
        </clipPath>
        <path clip-path="url(#nav_sites_24_SVGID_13_)" fill="#1A237E" fill-opacity="0.1" d="M15.5,7C14.7,7,14,6.3,14,5.5v0.1c0,0.8,0.7,1.5,1.5,1.5                                                                                H20V7H15.5z"/>
      </g>
      <g>
        <defs>
          <path id="nav_sites_24_SVGID_14_" d="M14,1H5.5C4.7,1,4,1.7,4,2.5v19C4,22.3,4.7,23,5.5,23h13c0.8,0,1.5-0.7,1.5-1.5V7L14,1z"/>
        </defs>
        <clipPath id="nav_sites_24_SVGID_15_">
          <use xlink:href="#nav_sites_24_SVGID_14_" overflow="visible"/>
        </clipPath>
        <polyline clip-path="url(#nav_sites_24_SVGID_15_)" fill="#F1F1F1" points="12.5,15.5 8,15.5 8,19 12.5,19 12.5,15.5"/>
      </g>
      <g>
        <defs>
          <path id="nav_sites_24_SVGID_16_" d="M14,1H5.5C4.7,1,4,1.7,4,2.5v19C4,22.3,4.7,23,5.5,23h13c0.8,0,1.5-0.7,1.5-1.5V7L14,1z"/>
        </defs>
        <clipPath id="nav_sites_24_SVGID_17_">
          <use xlink:href="#nav_sites_24_SVGID_16_" overflow="visible"/>
        </clipPath>
        <polyline clip-path="url(#nav_sites_24_SVGID_17_)" fill="#F1F1F1" points="16,15.5 13.5,15.5 13.5,19 16,19 16,15.5"/>
      </g>
      <g>
        <defs>
          <path id="nav_sites_24_SVGID_18_" d="M14,1H5.5C4.7,1,4,1.7,4,2.5v19C4,22.3,4.7,23,5.5,23h13c0.8,0,1.5-0.7,1.5-1.5V7L14,1z"/>
        </defs>
   <clipPath id="nav_sites_24_SVGID_19_">
     <use xlink:href="#nav_sites_24_SVGID_18_" overflow="visible"/>
        </clipPath>
        <polyline clip-path="url(#nav_sites_24_SVGID_19_)" fill="#F1F1F1" points="16,12 8,12 8,14.5 16,14.5 16,12"/>
      </g>
 </g>
    <radialGradient id="nav_sites_24_SVGID_20_" cx="4425.0552" cy="-6825.7827" r="206.3981" gradientTransform="matrix(0.125 0 0 -0.125 -548.625 -851.625)" gradientUnits="userSpaceOnUse">
      <stop offset="0" style="stop-color:#FFFFFF;stop-opacity:0.1"/>
      <stop offset="1" style="stop-color:#FFFFFF;stop-opacity:0"/>
    </radialGradient>
    <path fill="url(#nav_sites_24_SVGID_20_)" d="M14,1H5.5C4.7,1,4,1.7,4,2.5v19C4,22.3,4.7,23,5.5,23h13c0.8,0,1.5-0.7,1.5-1.5V7L14,1z"/>
  </g>
</g><g transform="translate(48,197)"><g>
 <g>
  <g>
   <g>
    <g>
     <g>
      <g>
       <defs>
        <path id="SVGID_1_" d="M14,1H5.5C4.7,1,4,1.7,4,2.5v19C4,22.3,4.7,23,5.5,23h13c0.8,0,1.5-0.7,1.5-1.5V7L14,1z"/>
       </defs>
       <clipPath id="SVGID_2_">
        <use xlink:href="#SVGID_1_" overflow="visible"/>
       </clipPath>
       <path clip-path="url(#SVGID_2_)" fill="#F4B400" d="M14,1H5.5C4.7,1,4,1.7,4,2.5v19C4,22.3,4.7,23,5.5,23h13         c0.8,0,1.5-0.7,1.5-1.5V7l-3.5-2.5L14,1z"/>
      </g>
     </g>
    </g>
    <g>
     <g>
      <g>
       <defs>
        <path id="SVGID_3_" d="M14,1H5.5C4.7,1,4,1.7,4,2.5v19C4,22.3,4.7,23,5.5,23h13c0.8,0,1.5-0.7,1.5-1.5V7L14,1z"/>
       </defs>
       <clipPath id="SVGID_4_">
        <use xlink:href="#SVGID_3_" overflow="visible"/>
       </clipPath>
       <g clip-path="url(#SVGID_4_)">
        <path fill="#F1F1F1" d="M15.2,11H8.8C8.3,11,8,11.3,8,11.8v6.5C8,18.7,8.3,19,8.8,19h6.5c0.4,0,0.8-0.3,0.8-0.8v-6.5          C16,11.3,15.7,11,15.2,11z M15,16.8H9v-3.5h6V16.8z"/>
       </g>
      </g>
     </g>
    </g>
    <g>
     <g>
      <g>
       <defs>
        <path id="SVGID_5_" d="M14,1H5.5C4.7,1,4,1.7,4,2.5v19C4,22.3,4.7,23,5.5,23h13c0.8,0,1.5-0.7,1.5-1.5V7L14,1z"/>
       </defs>
       <clipPath id="SVGID_6_">
        <use xlink:href="#SVGID_5_" overflow="visible"/>
       </clipPath>
       <g clip-path="url(#SVGID_6_)">
        <g>
         <path fill="#FADA80" d="M14,1v4.5C14,6.3,14.7,7,15.5,7H20L14,1z"/>
        </g>
       </g>
      </g>
     </g>
    </g>
    <g>
     <g>
      <g>
       <defs>
        <path id="SVGID_7_" d="M14,1H5.5C4.7,1,4,1.7,4,2.5v19C4,22.3,4.7,23,5.5,23h13c0.8,0,1.5-0.7,1.5-1.5V7L14,1z"/>
       </defs>
       <clipPath id="SVGID_8_">
        <use xlink:href="#SVGID_7_" overflow="visible"/>
       </clipPath>
      </g>
     </g>
    </g>
    <g>
     <g>
      <g>
       <defs>
        <path id="SVGID_9_" d="M14,1H5.5C4.7,1,4,1.7,4,2.5v19C4,22.3,4.7,23,5.5,23h13c0.8,0,1.5-0.7,1.5-1.5V7L14,1z"/>
       </defs>
       <clipPath id="SVGID_10_">
        <use xlink:href="#SVGID_9_" overflow="visible"/>
       </clipPath>
      </g>
     </g>
    </g>
    <g>
     <g>
      <g>
       <defs>
        <path id="SVGID_11_" d="M14,1H5.5C4.7,1,4,1.7,4,2.5v19C4,22.3,4.7,23,5.5,23h13c0.8,0,1.5-0.7,1.5-1.5V7L14,1z"/>
       </defs>
       <clipPath id="SVGID_12_">
        <use xlink:href="#SVGID_11_" overflow="visible"/>
       </clipPath>
      </g>
     </g>
    </g>
    <g>
     <g>
      <g>
       <defs>
        <path id="SVGID_13_" d="M14,1H5.5C4.7,1,4,1.7,4,2.5v19C4,22.3,4.7,23,5.5,23h13c0.8,0,1.5-0.7,1.5-1.5V7L14,1z"/>
       </defs>
       <clipPath id="SVGID_14_">
        <use xlink:href="#SVGID_13_" overflow="visible"/>
       </clipPath>
      </g>
     </g>
    </g>
   </g>
  </g>
 </g>
</g>
</g><g transform="translate(24,828)"><defs>
    <path id="people_20_a" d="M11.5554167 3.5c0-1.2425-.4375-2.38875-1.16375-3.29.3675-.1225.7525-.21 1.16375-.21 1.93375 0 3.5 1.56625 3.5 3.5s-1.56625 3.5-3.5 3.5c-.37625 0-.735-.07875-1.07625-.18375-.02625-.00875-.0525-.0175-.0875-.02625.72625-.90125 1.16375-2.0475 1.16375-3.29zm1.3279166 4.44166667c1.1416667.775 1.95 1.825 1.95 3.22500003V14H18v-2.8333333C18 9.35 15.1833333 8.275 12.8833333 7.94166667zM6.5 2c-.91666667 0-1.66666667.75-1.66666667 1.66666667 0 .91666666.75 1.66666666 1.66666667 1.66666666.91666667 0 1.66666667-.75 1.66666667-1.66666666C8.16666667 2.75 7.41666667 2 6.5 2zm0 7.5c-2.25 0-4.83333333 1.075-5 1.675V12h10v-.8333333C11.3333333 10.575 8.75 9.5 6.5 9.5zm0-9.5C8.43375 0 10 1.56625 10 3.5S8.43375 7 6.5 7 3 5.43375 3 3.5 4.56625 0 6.5 0zM13 11.1666667V14H0v-2.8333333C0 8.95 4.275 7.83333333 6.5 7.83333333c2.225 0 6.5 1.11666667 6.5 3.33333337z"/>
  </defs>
  <use fill="#5f6368" fill-rule="nonzero" xlink:href="#people_20_a" transform="translate(1 3)"/>
</g><g transform="translate(30,1237)"><defs>
    <path id="pin_offline_20_a" d="M0 0h20v20H0z"/>
  </defs>
  <g fill="none" fill-rule="evenodd">
    <mask id="pin_offline_20_b" fill="#fff">
      <use xlink:href="#pin_offline_20_a"/>
    </mask>
    <path fill="#5f6368" fill-rule="nonzero" d="M10 1.66666667c-4.58333333 0-8.33333333 3.75-8.33333333 8.33333333 0 4.5833333 3.75 8.3333333 8.33333333 8.3333333 4.5833333 0 8.3333333-3.75 8.3333333-8.3333333 0-4.58333333-3.75-8.33333333-8.3333333-8.33333333zM14.1666667 15H5.83333333v-1.6666667h8.33333337V15zm-5.58333337-3.3333333l-2.75-2.75000003L7 7.75l1.58333333 1.58333333L13 4.91666667l1.1666667 1.16666666-5.58333337 5.58333337z" mask="url(#pin_offline_20_b)"/>
  </g>
</g><g transform="translate(0,391)"><defs>
        <path id="pin_offline_#5f6368_24_a" d="M0 0h24v24H0V0z"/>
    </defs>
    <clipPath id="pin_offline_#5f6368_24_b">
        <use xlink:href="#pin_offline_#5f6368_24_a" overflow="visible"/>
    </clipPath>
    <path clip-path="url(#pin_offline_#5f6368_24_b)" fill="#5f6368" d="M12 2C6.5 2 2 6.5 2 12s4.5 10 10 10 10-4.5 10-10S17.5 2 12 2zm5 16H7v-2h10v2zm-6.7-4L7 10.7l1.4-1.4 1.9 1.9 5.3-5.3L17 7.3 10.3 14z"/>
</g><g transform="translate(0,846)"><defs>
        <path id="a" d="M0 0h24v24H0V0z"/>
    </defs>
    <clipPath id="b">
        <use xlink:href="#a" overflow="visible"/>
    </clipPath>
    <path clip-path="url(#b)" fill="#4285F4" d="M12 2C6.5 2 2 6.5 2 12s4.5 10 10 10 10-4.5 10-10S17.5 2 12 2zm5 16H7v-2h10v2zm-6.7-4L7 10.7l1.4-1.4 1.9 1.9 5.3-5.3L17 7.3 10.3 14z"/>
</g><g transform="translate(24,617)"><defs>
    <path d="M1 8h8v2H1V8zm2.583-3.374L2 2.75.833 3.917l2.75 3.082L8.557 1.57 7.391.404 3.583 4.626z" id="pin_offline_outline_20_a"/>
  </defs>
  <g fill="none" fill-rule="evenodd">
    <path d="M9.991 1C5.023 1 1 5.032 1 10s4.023 9 8.991 9C14.968 19 19 14.968 19 10s-4.032-9-9.009-9zM10 17.5A7.498 7.498 0 0 1 2.5 10c0-4.144 3.356-7.5 7.5-7.5s7.5 3.356 7.5 7.5-3.356 7.5-7.5 7.5z" fill="#5f6368" fill-rule="nonzero"/>
    <use fill="#5f6368" fill-rule="nonzero" xlink:href="#pin_offline_outline_20_a" id="pin_offline_outline_20_b" transform="translate(5 5)"/>
  </g>
</g><g transform="translate(0,1071)"><defs>
    <path id="pin_offline_outline_24_a" d="M12,2 C6.5,2 2,6.5 2,12 C2,17.5 6.5,22 12,22 C17.5,22 22,17.5 22,12 C22,6.5 17.5,2 12,2 Z M12,20 C7.59,20 4,16.41 4,12 C4,7.59 7.59,4 12,4 C16.41,4 20,7.59 20,12 C20,16.41 16.41,20 12,20 Z M7,15 L17,15 L17,17 L7,17 L7,15 Z M10.3,11.2 L8.4,9.3 L7,10.7 L10.3,14 L17,7.3 L15.6,5.9 L10.3,11.2 Z"/>
  </defs>
  <g fill="none" fill-rule="evenodd">
    <mask id="pin_offline_outline_24_b" fill="white">
      <use xlink:href="#pin_offline_outline_24_a"/>
    </mask>
    <rect width="24" height="24" fill="#5f6368" mask="url(#pin_offline_outline_24_b)"/>
  </g>
</g><g transform="translate(24,136)"><g fill="none" fill-rule="evenodd">
    <path fill="#5f6368" fill-rule="nonzero" d="M10 3.33333333v-2.5L6.66666667 4.16666667 10 7.5V5c2.7625 0 5 2.2375 5 5 0 .8458333-.2125 1.6375-.5791667 2.3375L15.6375 13.5541667C16.2833333 12.5208333 16.6666667 11.3083333 16.6666667 10c0-3.68333333-2.9833334-6.66666667-6.6666667-6.66666667zM10 15c-2.7625 0-5-2.2375-5-5 0-.84583333.2125-1.6375.57916667-2.3375L4.3625 6.44583333C3.71666667 7.47916667 3.33333333 8.69166667 3.33333333 10c0 3.6833333 2.98333334 6.6666667 6.66666667 6.6666667v2.5l3.3333333-3.3333334L10 12.5V15z"/>
    <path d="M0 0h20v20H0z"/>
  </g>
</g><g transform="translate(0,641)"><path fill="#5f6368" d="M12 4V1L8 5l4 4V6c3.31 0 6 2.69 6 6 0 1.01-.25 1.97-.7 2.8l1.46 1.46C19.54 15.03 20 13.57 20 12c0-4.42-3.58-8-8-8zm0 14c-3.31 0-6-2.69-6-6 0-1.01.25-1.97.7-2.8L5.24 7.74C4.46 8.97 4 10.43 4 12c0 4.42 3.58 8 8 8v3l4-4-4-4v3z"/>
    <path d="M0 0h24v24H0z" fill="none"/>
</g><g transform="translate(54,1151)"><g fill="none" fill-rule="evenodd">
    <path d="M0 0h20v20H0z"/>
    <path fill="#5f6368" fill-rule="nonzero" d="M2.5 10c0 1.8416667.75833333 3.5 1.9625 4.7041667l-1.9625 1.9625h5v-5l-1.8625 1.8625C4.72916667 12.625 4.16666667 11.3791667 4.16666667 10c0-2.175 1.39166666-4.02083333 3.33333333-4.70833333V3.55c-2.875.74166667-5 3.34583333-5 6.45zM9 14h2v-2H9v2zm8.5-10.66666667h-5v5l1.8625-1.8625C15.2708333 7.375 15.8333333 8.62083333 15.8333333 10c0 2.175-1.3916666 4.0208333-3.3333333 4.7083333v1.7375c2.875-.7375 5-3.3416666 5-6.4458333 0-1.84166667-.7583333-3.5-1.9625-4.70416667l1.9625-1.9625zM9 11h2V6H9v5z"/>
  </g>
</g><g transform="translate(0,529)"><path fill="none" d="M0 0h24v24H0z"/>
  <path fill="#5f6368" d="M3 12c0 2.21.91 4.2 2.36 5.64L3 20h6v-6l-2.24 2.24C5.68 15.15 5 13.66 5 12c0-2.61 1.67-4.83 4-5.65V4.26C5.55 5.15 3 8.27 3 12zm8 5h2v-2h-2v2zM21 4h-6v6l2.24-2.24C18.32 8.85 19 10.34 19 12c0 2.61-1.67 4.83-4 5.65v2.09c3.45-.89 6-4.01 6-7.74 0-2.21-.91-4.2-2.36-5.64L21 4zm-10 9h2V7h-2v6z"/>
</g><g transform="translate(0,553)"><g opacity="0.3">
 <path fill="#B1B1B1" d="M64,60c0,2.211-1.789,4-4,4H4c-2.211,0-4-1.789-4-4V4c0-2.211,1.789-4,4-4h56c2.211,0,4,1.789,4,4V60z"/>
 <rect x="12" y="24" fill="#FFFFFF" width="40" height="4"/>
 <rect x="12" y="16" fill="#FFFFFF" width="40" height="4"/>
 <rect x="12" y="32" fill="#FFFFFF" width="40" height="4"/>
 <rect x="12" y="40" fill="#FFFFFF" width="24" height="4"/>
 <rect fill="none" width="64" height="64"/>
</g>
</g><g transform="translate(14,740)"><!-- Generator: Sketch 3.3.2 (12043) - http://www.bohemiancoding.com/sketch -->
    <title>placeholder_forms_64</title>
    <desc>Created with Sketch.</desc>
    <defs/>
    <g xmlns:sketch="http://www.bohemiancoding.com/sketch/ns" id="Page-1" stroke="none" stroke-width="1" fill="none" fill-rule="evenodd" sketch:type="MSPage">
        <g id="placeholder_forms_64" sketch:type="MSLayerGroup" fill="#B1B1B1" opacity="0.3">
            <g id="Page-1" sketch:type="MSShapeGroup">
                <g id="placeholder_forms_64">
                    <g id="Page-1">
                        <g id="placeholder_forms_64">
                            <path d="M64,60 C64,62.211 62.211,64 60,64 L4,64 C1.789,64 0,62.211 0,60 L0,4 C0,1.789 1.789,0 4,0 L60,0 C62.211,0 64,1.789 64,4 L64,60 L64,60 Z M21,49 L14,49 L14,42 L21,42 L21,49 L21,49 Z M21,35 L14,35 L14,28 L21,28 L21,35 L21,35 Z M21,21 L14,21 L14,14 L21,14 L21,21 L21,21 Z M50,49 L25,49 L25,42 L50,42 L50,49 L50,49 Z M50,35 L25,35 L25,28 L50,28 L50,35 L50,35 Z M50,21 L25,21 L25,14 L50,14 L50,21 L50,21 Z" id="Shape"/>
                        </g>
                    </g>
                </g>
            </g>
        </g>
    </g>
</g><g transform="translate(0,983)"><g opacity="0.3">
 <path fill="#B1B1B1" d="M64,60c0,2.211-1.789,4-4,4H4c-2.211,0-4-1.789-4-4V4c0-2.211,1.789-4,4-4h56c2.211,0,4,1.789,4,4V60z"/>
 <path fill="#FFFFFF" d="M48,12H28h-4H12v1.418V16v8v4v8v4v8v3.688V52h12h4h20h4v-4v-8v-4v-8v-4v-8v-4H48z M16,16h8v8h-8V16z M16,28   h8v8h-8V28z M16,48v-8h8v8H16z M48,48H28v-8h20V48z M48,36H28v-8h20V36z M48,24H28v-8h20V24z"/>
 <rect fill="none" width="64" height="64"/>
</g>
</g><g transform="translate(0,48)"><g opacity="0.3">
 <path fill="#B1B1B1" d="M64,52c0,6.629-5.375,12-12,12H12C5.375,64,0,58.629,0,52V12C0,5.371,5.375,0,12,0h40   c6.625,0,12,5.371,12,12V52z"/>
 <rect x="12" y="16" fill="#FFFFFF" width="40" height="28"/>
 <rect fill="none" width="64" height="64"/>
</g>
</g><g transform="translate(0,1095)"><defs>
    <path id="popout_outline_24_a" d="M19 19H5V5h7V3H5a2 2 0 0 0-2 2v14a2 2 0 0 0 2 2h14c1.1 0 2-.9 2-2v-7h-2v7zM14 3v2h3.59l-9.83 9.83 1.41 1.41L19 6.41V10h2V3h-7z"/>
  </defs>
  <g fill="none" fill-rule="evenodd">
    <mask id="popout_outline_24_b" fill="#fff">
      <use xlink:href="#popout_outline_24_a"/>
    </mask>
    <path fill="#5f6368" mask="url(#popout_outline_24_b)" d="M0 0h24v24H0z"/>
  </g>
</g><g transform="translate(64,439)"><g>
 <g>
  <path fill="#FF7537" d="M7.125,0H1v2.188h2v10.797h1.984V8.381C5.521,8.615,6.501,8.75,7.125,8.75    c2.416,0,4.375-1.958,4.375-4.375S9.541,0,7.125,0z M7.125,6.562H5V2.188h2.125c1.208,0,2.188,0.979,2.188,2.188    S8.333,6.562,7.125,6.562z"/>
 </g>
 <rect fill="none" width="14" height="14"/>
</g>
</g><g transform="translate(0,870)"><g id="powerpoint_24_a" stroke="none" stroke-width="1" fill="none" fill-rule="evenodd">
    <g id="powerpoint_24_b">
      <polygon id="Path" points="0 0 24 0 24 24 0 24"/>
      <path d="M19,3 L5,3 C3.9,3 3,3.9 3,5 L3,19 C3,20.1 3.9,21 5,21 L19,21 C20.1,21 21,20.1 21,19 L21,5 C21,3.9 20.1,3 19,3 Z M9.8,13.4 L9.8,17 L8,17 L8,7 L12.3,7 C13.83,7 14.45,7.3 15.1,7.89 C15.75,8.48 16,9.26 16,10.23 C16,11.25 15.74,12.03 15.1,12.58 C14.46,13.13 13.8,13.4 12.3,13.4 L9.8,13.4 Z M9.8,12 L9.8,8.4 L12.1,8.4 C12.76,8.4 13.27,8.65 13.6,9 C13.93,9.35 14.1,9.72 14.1,10.25 C14.1,10.8 13.92,11.2 13.6,11.5 C13.28,11.81 12.9,12 12.22,12 L9.8,12 Z" id="Shape" fill="#ED7C4F" fill-rule="nonzero"/>
    </g>
  </g>
</g><g transform="translate(0,1219)"><g>
 <g>
  <g>
   <g>
    <g>
     <path fill="#FFFFFF" d="M29,10h-9V1H1.984C1.312,1,1,2,1,2v33c0,0.484,0.484,1,1,1h25.938C28.516,36,29,35.453,29,34.984V10z"/>
    </g>
   </g>
   <polygon fill="#E4E4E4" points="20,10 29,10 29,17    "/>
   <polygon fill="#F7F7F7" points="29,10 20,10 20,1    "/>
  </g>
  <g opacity="0.07">
   <path d="M20,1l9,9v7v17.984C29,35.453,28.516,36,27.938,36H2c-0.516,0-1-0.516-1-1V2c0,0,0.312-1,0.984-1H20 M20.414,0H20H1.984     C0.946,0,0.291,0.917,0.046,1.702L0,1.848V2v33c0,1.047,0.953,2,2,2h25.938C29.017,37,30,36.039,30,34.984V17v-7V9.586     l-0.293-0.293l-9-9L20.414,0L20.414,0z"/>
  </g>
 </g>
</g>
<g>
 <g>
  <path fill="#FF7537" d="M15.125,15H9v2.188h2v10.797h1.984v-4.604c0.537,0.234,1.517,0.369,2.141,0.369    c2.416,0,4.375-1.958,4.375-4.375S17.541,15,15.125,15z M15.125,21.562H13v-4.375h2.125c1.208,0,2.188,0.979,2.188,2.188    S16.333,21.562,15.125,21.562z"/>
 </g>
 <rect x="8" y="15" fill="none" width="14" height="14"/>
</g>
</g><g transform="translate(48,1294)"><g>
 <g>
  <g>
   <g opacity="0.03">
    <g>
     <path d="M29,10h-9V1H1.984C1.312,1,1,2,1,2v33c0,0.484,0.484,1,1,1h25.938C28.516,36,29,35.453,29,34.984V10z"/>
    </g>
   </g>
   <polygon fill="#DDDDDD" points="20,10 29,10 29,17    "/>
   <polygon fill="#EEEEEE" points="29,10 20,10 20,1    "/>
  </g>
  <g opacity="0.07">
   <path d="M20,1l9,9v7v17.984C29,35.453,28.516,36,27.938,36H2c-0.516,0-1-0.516-1-1V2c0,0,0.312-1,0.984-1H20 M20.414,0H20H1.984     C0.946,0,0.291,0.917,0.046,1.702L0,1.848V2v33c0,1.047,0.953,2,2,2h25.938C29.017,37,30,36.039,30,34.984V17v-7V9.586     l-0.293-0.293l-9-9L20.414,0L20.414,0z"/>
  </g>
 </g>
</g>
<g>
 <g>
  <path fill="#FF7537" d="M15.125,15H9v2.188h2v10.797h1.984v-4.604c0.537,0.234,1.517,0.369,2.141,0.369    c2.416,0,4.375-1.958,4.375-4.375S17.541,15,15.125,15z M15.125,21.562H13v-4.375h2.125c1.208,0,2.188,0.979,2.188,2.188    S16.333,21.562,15.125,21.562z"/>
 </g>
 <rect x="8" y="15" fill="none" width="14" height="14"/>
</g>
</g><g transform="translate(24,716)"><path fill="#5f6368" d="M5 4v2h14V4H5zm0 10h4v6h6v-6h4l-7-7-7 7z"/></g><g transform="translate(0,24)"><path fill="#FFFFFF" d="M5 4v2h14V4H5zm0 10h4v6h6v-6h4l-7-7-7 7z"/></g><g transform="translate(0,0)"><path d="M6 19c0 1.1.9 2 2 2h8c1.1 0 2-.9 2-2V7H6v12zM19 4h-3.5l-1-1h-5l-1 1H5v2h14V4z"/>
  <path d="M0 0h24v24H0z" fill="none"/>
</g><g transform="translate(24,665)"><g>
 <rect fill="none" width="24" height="24"/>
 <g>
  <path d="M9.896,14.35H5.072l-1.03,2.89H2L6.607,5.151h1.802l4.566,12.088h-2.051L9.896,14.35z M5.653,12.731h3.669L7.496,7.567    L5.653,12.731z"/>
  <path d="M19.543,17.239c-0.056-0.104-0.102-0.229-0.138-0.374c-0.036-0.143-0.067-0.299-0.095-0.465    c-0.133,0.139-0.281,0.27-0.444,0.391c-0.163,0.122-0.344,0.229-0.54,0.32c-0.196,0.091-0.41,0.162-0.639,0.215    c-0.229,0.053-0.475,0.079-0.735,0.079c-0.448,0-0.86-0.067-1.237-0.203c-0.376-0.136-0.698-0.323-0.967-0.564    s-0.479-0.524-0.631-0.851c-0.152-0.327-0.229-0.682-0.229-1.063c0-0.481,0.092-0.907,0.274-1.278s0.448-0.681,0.797-0.93    s0.776-0.438,1.282-0.569c0.507-0.13,1.084-0.195,1.731-0.195h1.271v-0.589c0-0.47-0.132-0.838-0.395-1.104    s-0.66-0.398-1.191-0.398c-0.481,0-0.862,0.111-1.142,0.332s-0.419,0.506-0.419,0.855H14.08c0-0.354,0.087-0.696,0.261-1.025    c0.175-0.329,0.423-0.623,0.743-0.88c0.321-0.257,0.71-0.463,1.167-0.619c0.456-0.155,0.967-0.232,1.531-0.232    c0.504,0,0.969,0.065,1.396,0.195c0.426,0.13,0.793,0.324,1.104,0.581s0.551,0.579,0.723,0.963    c0.171,0.385,0.257,0.834,0.257,1.349v3.985c0,0.809,0.113,1.453,0.341,1.934v0.142H19.543z M17.326,15.787    c0.232,0,0.449-0.031,0.651-0.092s0.385-0.141,0.548-0.24s0.307-0.215,0.428-0.346c0.121-0.129,0.219-0.262,0.291-0.395v-1.693    h-1.088c-0.747,0-1.309,0.131-1.686,0.391s-0.564,0.629-0.564,1.104c0,0.184,0.03,0.353,0.092,0.507    c0.061,0.155,0.152,0.29,0.273,0.403s0.27,0.202,0.444,0.266C16.89,15.755,17.094,15.787,17.326,15.787z"/>
 </g>
</g>
</g><g transform="translate(0,367)"><defs>
    <path id="rename_gm_24_a" d="M2 4v3h5v13h3V7h5V4H2zm20 5h-9v3h3v8h3v-8h3V9z"/>
  </defs>
  <g fill="none" fill-rule="evenodd">
    <mask id="rename_gm_24_b" fill="#fff">
      <use xlink:href="#rename_gm_24_a"/>
    </mask>
    <path fill="#5f6368" mask="url(#rename_gm_24_b)" d="M0 0h24v24H0z"/>
  </g>
</g><g transform="translate(24,1071)"><g>
 <g>
  <path d="M9.634,13.165C6.909,13.165,1,14.527,1,17.251V21h17v-3.749C18,14.527,12.357,13.165,9.634,13.165z M9.172,11.171    c2.254,0,4.084-1.827,4.084-4.085C13.256,4.83,11.426,3,9.172,3C6.915,3,5.086,4.83,5.086,7.085    C5.086,9.344,6.915,11.171,9.172,11.171z M21,8V5h-2v3h-3v2h3v3h2v-3h3V8H21z"/>
 </g>
 <rect fill="none" width="24" height="24"/>
</g>
</g><g transform="translate(24,487)"><g>
<path d="M9.048,13.248C7.405,13.248,4,14.07,4,15.713V18h10v-2.287C14,14.07,10.69,13.248,9.048,13.248z"/>
<circle cx="8.866" cy="9.464" r="2.464"/>
<g>
<path d="M20,14.86c0-1.449-2.868-2.075-4.317-2.104c-0.778-0.016-1.917,0.25-2.6,0.494c1.417,0.041,1.75,1.381,1.75,1.922v1.812    H20V14.86z"/>
</g>
<circle cx="15.493" cy="9.27" r="2.075"/>
</g>
<rect x="3" y="4" fill="none" width="18" height="16"/>
</g><g transform="translate(0,918)"><g>
 <path fill="#0F9D58" d="M14,13.125C14,13.608,13.608,14,13.125,14H0.875C0.392,14,0,13.608,0,13.125V0.875C0,0.392,0.392,0,0.875,0   h12.25C13.608,0,14,0.392,14,0.875V13.125z"/>
 <path fill="#FFFFFF" d="M7,3H6H3v0.354V4v6h8V3H7z M4,4h2v2H4V4z M4,7h2v2H4V7z M10,9H7V7h3V9z M10,6H7V4h3V6z"/>
 <rect fill="none" width="16" height="16"/>
</g>
</g><g transform="translate(24,1318)"><g fill="none" fill-rule="evenodd">
    <path d="M0 0h24v24H0z"/>
    <path d="M19 3H5c-1.1 0-1.99.9-1.99 2L3 8v11c0 1.1.9 2 2 2h14c1.1 0 2-.9 2-2V5c0-1.1-.9-2-2-2zm0 8h-8v8H9v-8H5V9h4V5h2v4h8v2z" fill="#0F9D58"/>
  </g>
</g><g transform="translate(48,258)"><g>
 <g>
  <g>
   <g>
    <g>
     <path fill="#FFFFFF" d="M29,10h-9V1H1.984C1.312,1,1,2,1,2v33c0,0.484,0.484,1,1,1h25.938C28.516,36,29,35.453,29,34.984V10z"/>
    </g>
   </g>
   <polygon fill="#E4E4E4" points="20,10 29,10 29,17    "/>
   <polygon fill="#F7F7F7" points="29,10 20,10 20,1    "/>
  </g>
  <g opacity="0.07">
   <path d="M20,1l9,9v7v17.984C29,35.453,28.516,36,27.938,36H2c-0.516,0-1-0.516-1-1V2c0,0,0.312-1,0.984-1H20 M20.414,0H20H1.984     C0.946,0,0.291,0.917,0.046,1.702L0,1.848V2v33c0,1.047,0.953,2,2,2h25.938C29.017,37,30,36.039,30,34.984V17v-7V9.586     l-0.293-0.293l-9-9L20.414,0L20.414,0z"/>
  </g>
 </g>
 <g>
  <path fill="#0F9D58" d="M22,28.125C22,28.608,21.608,29,21.125,29H8.875C8.392,29,8,28.608,8,28.125v-12.25    C8,15.392,8.392,15,8.875,15h12.25C21.608,15,22,15.392,22,15.875V28.125z"/>
  <path fill="#FFFFFF" d="M15,18h-1h-3v0.354V19v6h8v-7H15z M12,19h2v2h-2V19z M12,22h2v2h-2V22z M18,24h-3v-2h3V24z M18,21h-3v-2h3    V21z"/>
  <rect x="8" y="15" fill="none" width="16" height="16"/>
 </g>
</g>
</g><g transform="translate(24,1151)"><g>
 <g>
  <g>
   <g opacity="0.03">
    <g>
     <path d="M29,10h-9V1H1.984C1.312,1,1,2,1,2v33c0,0.484,0.484,1,1,1h25.938C28.516,36,29,35.453,29,34.984V10z"/>
    </g>
   </g>
   <polygon fill="#DDDDDD" points="20,10 29,10 29,17    "/>
   <polygon fill="#EEEEEE" points="29,10 20,10 20,1    "/>
  </g>
  <g opacity="0.07">
   <path d="M20,1l9,9v7v17.984C29,35.453,28.516,36,27.938,36H2c-0.516,0-1-0.516-1-1V2c0,0,0.312-1,0.984-1H20 M20.414,0H20H1.984     C0.946,0,0.291,0.917,0.046,1.702L0,1.848V2v33c0,1.047,0.953,2,2,2h25.938C29.017,37,30,36.039,30,34.984V17v-7V9.586     l-0.293-0.293l-9-9L20.414,0L20.414,0z"/>
  </g>
 </g>
 <g>
  <path fill="#0F9D58" d="M22,28.125C22,28.608,21.608,29,21.125,29H8.875C8.392,29,8,28.608,8,28.125v-12.25    C8,15.392,8.392,15,8.875,15h12.25C21.608,15,22,15.392,22,15.875V28.125z"/>
  <path fill="#FFFFFF" d="M15,18h-1h-3v0.354V19v6h8v-7H15z M12,19h2v2h-2V19z M12,22h2v2h-2V22z M18,24h-3v-2h3V24z M18,21h-3v-2h3    V21z"/>
  <rect x="8" y="15" fill="none" width="16" height="16"/>
 </g>
</g>
</g><g transform="translate(54,531)"><path fill="#3F51B5" d="M14,13c0,0.6-0.4,1-1,1H1c-0.6,0-1-0.4-1-1v-12c0-0.6,0.4-1,1-1h12c0.6,0,1,0.4,1,1V13z"/>
<g>
  <polyline fill="#FFFFFF" points="7,6 3,6 3,10 7,10 7,6   "/>
  <polyline fill="#FFFFFF" points="11,6 8,6 8,10 11,10 11,6  "/>
  <polyline fill="#FFFFFF" points="11,3 3,3 3,5 11,5 11,3  "/>
</g>
</g><g transform="translate(0,956)"><style>
        .st0{fill:none;}
    </style>
    <path class="st0" d="M0 0h24v24H0z"/>
    <path d="M19 3H5c-1.1 0-2 .9-2 2v14c0 1.1.9 2 2 2h14c1.1 0 2-.9 2-2V5c0-1.1-.9-2-2-2zm-7 14H6v-5h6v5zm6 0h-4v-5h4v5zm0-7H6V7h12v3z" fill="#3E50B4"/>
</g><g transform="translate(24,180)"><g>
 <path fill="#F4B400" d="M14,11.375C14,12.825,12.824,14,11.375,14h-8.75C1.176,14,0,12.825,0,11.375v-8.75C0,1.175,1.176,0,2.625,0   h8.75C12.824,0,14,1.175,14,2.625V11.375z"/>
 <rect x="3" y="4" fill="#FFFFFF" width="8" height="6"/>
 <rect fill="none" width="14" height="14"/>
</g>
</g><g transform="translate(44,136)"><g fill="none" fill-rule="evenodd">
    <path d="M0 0h24v24H0z"/>
    <path d="M19 3H5c-1.1 0-1.99.9-1.99 2v14c0 1.1.89 2 1.99 2h14c1.1 0 2-.9 2-2V5c0-1.1-.9-2-2-2zm0 13H5V8h14v8z" fill="#F4B400"/>
  </g>
</g><g transform="translate(48,679)"><g>
 <g>
  <g>
   <g>
    <g>
     <path fill="#FFFFFF" d="M29,10h-9V1H1.984C1.312,1,1,2,1,2v33c0,0.484,0.484,1,1,1h25.938C28.516,36,29,35.453,29,34.984V10z"/>
    </g>
   </g>
   <polygon fill="#E4E4E4" points="20,10 29,10 29,17    "/>
   <polygon fill="#F7F7F7" points="29,10 20,10 20,1    "/>
  </g>
  <g opacity="0.07">
   <path d="M20,1l9,9v7v17.984C29,35.453,28.516,36,27.938,36H2c-0.516,0-1-0.516-1-1V2c0,0,0.312-1,0.984-1H20 M20.414,0H20H1.984     C0.946,0,0.291,0.917,0.046,1.702L0,1.848V2v33c0,1.047,0.953,2,2,2h25.938C29.017,37,30,36.039,30,34.984V17v-7V9.586     l-0.293-0.293l-9-9L20.414,0L20.414,0z"/>
  </g>
 </g>
 <g>
  <path fill="#F4B400" d="M22,26.375C22,27.825,20.824,29,19.375,29h-8.75C9.176,29,8,27.825,8,26.375v-8.75    C8,16.175,9.176,15,10.625,15h8.75C20.824,15,22,16.175,22,17.625V26.375z"/>
  <rect x="11" y="19" fill="#FFFFFF" width="8" height="6"/>
  <rect x="8" y="15" fill="none" width="14" height="14"/>
 </g>
</g>
</g><g transform="translate(0,221)"><g>
 <g>
  <g>
   <g opacity="0.03">
    <g>
     <path d="M29,10h-9V1H1.984C1.312,1,1,2,1,2v33c0,0.484,0.484,1,1,1h25.938C28.516,36,29,35.453,29,34.984V10z"/>
    </g>
   </g>
   <polygon fill="#DDDDDD" points="20,10 29,10 29,17    "/>
   <polygon fill="#EEEEEE" points="29,10 20,10 20,1    "/>
  </g>
  <g opacity="0.07">
   <path d="M20,1l9,9v7v17.984C29,35.453,28.516,36,27.938,36H2c-0.516,0-1-0.516-1-1V2c0,0,0.312-1,0.984-1H20 M20.414,0H20H1.984     C0.946,0,0.291,0.917,0.046,1.702L0,1.848V2v33c0,1.047,0.953,2,2,2h25.938C29.017,37,30,36.039,30,34.984V17v-7V9.586     l-0.293-0.293l-9-9L20.414,0L20.414,0z"/>
  </g>
 </g>
 <g>
  <path fill="#F4B400" d="M22,26.375C22,27.825,20.824,29,19.375,29h-8.75C9.176,29,8,27.825,8,26.375v-8.75    C8,16.175,9.176,15,10.625,15h8.75C20.824,15,22,16.175,22,17.625V26.375z"/>
  <rect x="11" y="19" fill="#FFFFFF" width="8" height="6"/>
  <rect x="8" y="15" fill="none" width="14" height="14"/>
 </g>
</g>
</g><g transform="translate(0,1127)"><g id="ic_x5F_list_x0D_">
</g>
<g id="ic_x5F_viewModule">
</g>
<polygon points="9,5 12,1.5 15,5 "/>
<polygon points="15,19 12,22.5 9,19 "/>
<rect fill="none" width="24" height="24"/>
<rect x="2" y="2" fill="none" width="20" height="20"/>
<g>
  <path d="M10.216,14.844h-3.51L6.026,17H4L7.441,7h2.053l3.428,10h-2.026L10.216,14.844z M7.201,13.271h2.52L8.484,9.342H8.443     L7.201,13.271z"/>
  <path d="M15.875,15.455h4.891V17h-7.314v-1.049l4.752-7.406h-4.746V7h7.191v1.003L15.875,15.455z"/>
</g>
<g id="ic_x5F_folder_x5F_flat">
</g>
</g><g transform="translate(0,1318)"><defs>
    <path id="sort_roboto_24_a" d="M11.66 17L7.91 7H5.74L2 17h2.08l.84-2.39h3.83L9.58 17h2.08zm-6.14-4.12l.89-2.51.36-1.2h.11l.36 1.2.88 2.51h-2.6zm10.41 2.33l5.01-6.31V7h-7.03v1.79h4.84l-5.07 6.31V17H21v-1.79h-5.07zM12 2L9 5h6l-3-3zm0 20l3-3H9l3 3z"/>
  </defs>
  <g fill="none" fill-rule="evenodd">
    <mask id="sort_roboto_24_b" fill="#fff">
      <use xlink:href="#sort_roboto_24_a"/>
    </mask>
    <path fill="#5f6368" mask="url(#sort_roboto_24_b)" d="M0 0h24v24H0z"/>
  </g>
</g><g transform="translate(0,1047)"><defs>
    <path id="sort_roboto_white_24_a" d="M11.66 17L7.91 7H5.74L2 17h2.08l.84-2.39h3.83L9.58 17h2.08zm-6.14-4.12l.89-2.51.36-1.2h.11l.36 1.2.88 2.51h-2.6zm10.41 2.33l5.01-6.31V7h-7.03v1.79h4.84l-5.07 6.31V17H21v-1.79h-5.07zM12 2L9 5h6l-3-3zm0 20l3-3H9l3 3z"/>
  </defs>
  <g fill="none" fill-rule="evenodd">
    <mask id="sort_roboto_white_24_b" fill="#fff">
      <use xlink:href="#sort_roboto_white_24_a"/>
    </mask>
    <path fill="#FFF" mask="url(#sort_roboto_white_24_b)" d="M0 0h24v24H0z"/>
  </g>
</g><g transform="translate(0,343)"><polygon fill="#FFFFFF" points="9,5 12,1.5 15,5 "/>
<polygon fill="#FFFFFF" points="15,19 12,22.5 9,19 "/>
<rect fill="none" width="24" height="24"/>
<rect x="2" y="2" fill="none" width="20" height="20"/>
<g>
<path fill="#FFFFFF" d="M10.216,14.844h-3.51L6.026,17H4L7.441,7h2.053l3.428,10h-2.026L10.216,14.844z M7.201,13.271h2.52   L8.484,9.342H8.443L7.201,13.271z"/>
<path fill="#FFFFFF" d="M15.875,15.455h4.891V17h-7.314v-1.049l4.752-7.406h-4.746V7h7.191v1.003L15.875,15.455z"/>
</g>
</g><g transform="translate(0,617)"><!-- Generator: Sketch 3.5.1 (25234) - http://www.bohemiancoding.com/sketch -->
    <title>Suggestions_dark_24dp</title>
    <desc>Created with Sketch.</desc>
    <defs/>
    <g xmlns:sketch="http://www.bohemiancoding.com/sketch/ns" id="Icons" stroke="none" stroke-width="1" fill="none" fill-rule="evenodd" sketch:type="MSPage">
        <g id="Suggestions_dark_24dp" sketch:type="MSArtboardGroup">
            <g id="ic_rate_review_#5f6368_24dp" sketch:type="MSLayerGroup">
                <path d="M0,0 L24,0 L24,24 L0,24 L0,0 Z M15.35,6.41 L13.58,4.64 C13.38,4.44 13.07,4.44 12.87,4.64 L6,11.53 L6,14 L8.47,14 L15.35,7.12 C15.55,6.93 15.55,6.61 15.35,6.41 L15.35,6.41 Z" id="Shape" sketch:type="MSShapeGroup"/>
                <path d="M20,2 L4,2 C2.9,2 2.01,2.9 2.01,4 L2,22 L6,18 L20,18 C21.1,18 22,17.1 22,16 L22,4 C22,2.9 21.1,2 20,2 L20,2 Z M6,14 L6,11.53 L12.88,4.65 C13.08,4.45 13.39,4.45 13.59,4.65 L15.36,6.42 C15.56,6.62 15.56,6.93 15.36,7.13 L8.47,14 L6,14 L6,14 Z M18,14 L10.5,14 L12.5,12 L18,12 L18,14 L18,14 Z" id="Shape" fill="#5f6368" sketch:type="MSShapeGroup"/>
            </g>
        </g>
    </g>
</g><g transform="translate(48,24)"><path d="M12 4v-3l-4 4 4 4v-3c3.31 0 6 2.69 6 6 0 1.01-.25 1.97-.7 2.8l1.46 1.46c.78-1.23 1.24-2.69 1.24-4.26 0-4.42-3.58-8-8-8zm0 14c-3.31 0-6-2.69-6-6 0-1.01.25-1.97.7-2.8l-1.46-1.46c-.78 1.23-1.24 2.69-1.24 4.26 0 4.42 3.58 8 8 8v3l4-4-4-4v3z"/>
  <path d="M0 0h24v24h-24z" fill="none"/>
</g><g transform="translate(24,1342)"><path d="M12 4V1L8 5l4 4V6c3.31 0 6 2.69 6 6 0 1.01-.25 1.97-.7 2.8l1.46 1.46A7.93 7.93 0 0 0 20 12c0-4.42-3.58-8-8-8zm0 14c-3.31 0-6-2.69-6-6 0-1.01.25-1.97.7-2.8L5.24 7.74A7.93 7.93 0 0 0 4 12c0 4.42 3.58 8 8 8v3l4-4-4-4v3z" fill="#FFF"/>
  <path d="M0 0h24v24H0z" fill="none"/>
</g><g transform="translate(0,1151)"><g fill="none" fill-rule="evenodd">
    <path fill="#5f6368" fill-rule="nonzero" d="M15.8375 1.66666667H4.1625c-.91666667 0-1.6625.75-1.6625 1.65833333v10.8416667h15V3.325c0-.91666667-.7458333-1.65833333-1.6625-1.65833333zM12.1875 5c.8083333 0 1.4583333.65416667 1.4583333 1.45833333 0 .80416667-.65 1.45833334-1.4583333 1.45833334-.8041667 0-1.4583333-.65416667-1.4583333-1.45833334C10.7291667 5.65416667 11.3791667 5 12.1875 5zm-4.375 0c.80833333 0 1.45833333.65416667 1.45833333 1.45833333 0 .80416667-.65 1.45833334-1.45833333 1.45833334-.80416667 0-1.45833333-.65416667-1.45833333-1.45833334C6.35416667 5.65416667 7.00833333 5 7.8125 5zm3.6458333 5.8333333H4.16666667V10.6125c0-1.21666667 2.42916666-1.825 3.64583333-1.825s3.6458333.60416667 3.6458333 1.825v.2208333zm4.375 0H12.55V10.6125c0-.75833333-.4-1.34166667-.975-1.77916667.2208333-.02916666.4291667-.04166666.6125-.04166666 1.2166667 0 3.6458333.60416666 3.6458333 1.82500003v.2166666zM2.5 16.675c0 .9166667.74583333 1.6583333 1.6625 1.6583333h11.675c.9166667 0 1.6625-.75 1.6625-1.6583333V15h-15v1.675zm12.5-.8416667c.4583333 0 .8333333.375.8333333.8333334 0 .4583333-.375.8333333-.8333333.8333333-.4583333 0-.8333333-.375-.8333333-.8333333 0-.4583334.375-.8333334.8333333-.8333334z"/>
    <path d="M0 0h20v20H0z"/>
  </g>
</g><g transform="translate(24,160)"><g fill="none" fill-rule="evenodd">
    <path fill="#5f6368" fill-rule="nonzero" d="M15.8375 1.66666667H4.1625c-.91666667 0-1.6625.75-1.6625 1.65833333v10.8416667h15V3.325c0-.91666667-.7458333-1.65833333-1.6625-1.65833333zM2.5 16.675c0 .9166667.74583333 1.6583333 1.6625 1.6583333h11.675c.9166667 0 1.6625-.75 1.6625-1.6583333V15h-15v1.675zm12.5-.8416667c.4583333 0 .8333333.375.8333333.8333334 0 .4583333-.375.8333333-.8333333.8333333-.4583333 0-.8333333-.375-.8333333-.8333333 0-.4583334.375-.8333334.8333333-.8333334z"/>
    <path d="M0 0h20v20H0z"/>
  </g>
</g><g transform="translate(24,391)"><g stroke="none" stroke-width="1" fill-rule="evenodd">
    <path d="M19,2 L5,2 C3.9,2 3,2.9 3,3.99 L3,17 L21,17 L21,3.99 C21,2.89 20.11,2 19,2 L19,2 Z M3,20.01 C3,21.11 3.89,22 5,22 L19,22 C20.1,22 21,21.1 21,20.01 L21,18 L3,18 L3,20.01 L3,20.01 Z M18,19 C18.55,19 19,19.45 19,20 C19,20.55 18.55,21 18,21 C17.45,21 17,20.55 17,20 C17,19.45 17.45,19 18,19 L18,19 Z"/>
    <path d="M0,0 L24,0 L24,24 L0,24 L0,0 Z" fill="none"/>
  </g>
</g><g transform="translate(0,487)"><path d="M19 2H5c-1.1 0-2 .9-2 1.99V17h18V3.99C21 2.89 20.11 2 19 2zm-4.38 4c.97 0 1.75.79 1.75 1.75S15.6 9.5 14.62 9.5c-.96 0-1.75-.79-1.75-1.75S13.65 6 14.62 6zM9.38 6c.97 0 1.75.79 1.75 1.75S10.35 9.5 9.38 9.5c-.96 0-1.75-.79-1.75-1.75S8.41 6 9.38 6zm4.37 7H5v-.26c0-1.46 2.91-2.19 4.38-2.19s4.38.73 4.38 2.19V13zM19 13h-3.94v-.26c0-.91-.48-1.61-1.17-2.14.26-.03.52-.05.73-.05 1.46 0 4.38.73 4.38 2.19V13zM3 20.01c0 1.1.89 1.99 2 1.99h14c1.1 0 2-.9 2-1.99V18H3v2.01zM18 19c.55 0 1 .45 1 1s-.45 1-1 1-1-.45-1-1 .45-1 1-1z"/>
    <path fill="none" d="M0 0h24v24H0z"/>
</g><g transform="translate(50,1237)"><g fill="none" fill-rule="evenodd">
    <path fill="#5f6368" fill-rule="nonzero" d="M15.8375 1.66666667H4.1625c-.91666667 0-1.6625.75-1.6625 1.65833333v10.8416667h15V3.325c0-.91666667-.7458333-1.65833333-1.6625-1.65833333zM2.5 16.675c0 .9166667.74583333 1.6583333 1.6625 1.6583333h11.675c.9166667 0 1.6625-.75 1.6625-1.6583333V15h-15v1.675zM13 9H9.82957271C9.41881773 10.1640812 8.31057101 11 7 11c-1.65428571 0-3-1.34571429-3-3s1.33714286-3 3-3c1.31057101 0 2.41881773.83591881 2.82957271 2H16v2h-1v2h-2V9zM7 6.75c-.69285714 0-1.25.56071429-1.25 1.25S6.31071429 9.25 7 9.25c.69285714 0 1.25-.56071429 1.25-1.25S7.69285714 6.75 7 6.75zm8 9.0833333c.4583333 0 .8333333.375.8333333.8333334 0 .4583333-.375.8333333-.8333333.8333333-.4583333 0-.8333333-.375-.8333333-.8333333 0-.4583334.375-.8333334.8333333-.8333334z"/>
    <path d="M0 0h20v20H0z"/>
  </g>
</g><g transform="translate(0,894)"><polygon fill="none" points="0 0 24 0 24 24 0 24"/>
  <path fill-rule="evenodd" d="M12.6151918,9 L19,9 L19,11 L18,11 L18,13 L16,13 L16,11 L12.6151918,11 C12.1775692,12.5855935 10.7247655,13.75 9,13.75 C6.92893219,13.75 5.25,12.0710678 5.25,10 C5.25,7.92893219 6.92893219,6.25 9,6.25 C10.7247655,6.25 12.1775692,7.4144065 12.6151918,9 Z M3,17 L3,3.99079514 C3,2.89821238 3.8932319,2 4.99508929,2 L19.0049107,2 C20.1073772,2 21,2.89130934 21,3.99079514 L21,17 L3,17 Z M3,18 L3,20.0092049 C3,21.1086907 3.8926228,22 4.99508929,22 L19.0049107,22 C20.1067681,22 21,21.1017876 21,20.0092049 L21,18 L3,18 Z M18,21 C18.5522847,21 19,20.5522847 19,20 C19,19.4477153 18.5522847,19 18,19 C17.4477153,19 17,19.4477153 17,20 C17,20.5522847 17.4477153,21 18,21 Z"/>
  <circle cx="9" cy="10" r="1.66666667"/>
</g><g transform="translate(0,282)"><defs>
    <path id="template_24_a" d="M14 2H6c-1.1 0-1.99.9-1.99 2L4 20c0 1.1.89 2 1.99 2H18c1.1 0 2-.9 2-2V8l-6-6zM6 20V4h7v5h5v11H6z"/>
  </defs>
  <g fill="none" fill-rule="evenodd">
    <mask id="template_24_b" fill="#fff">
      <use xlink:href="#template_24_a"/>
    </mask>
    <path fill="#5f6368" mask="url(#template_24_b)" d="M0 0h24v24H0z"/>
  </g>
</g><g transform="translate(24,282)"><!-- Generator: Sketch 3.5.1 (25234) - http://www.bohemiancoding.com/sketch -->
    <title>Todos_Dark_24dp</title>
    <desc>Created with Sketch.</desc>
    <defs>
        <path id="path-1" d="M0,0 L24,0 L24,24 L0,24 L0,0 L0,0 Z"/>
    </defs>
    <g xmlns:sketch="http://www.bohemiancoding.com/sketch/ns" id="Page-1" stroke="none" stroke-width="1" fill="none" fill-rule="evenodd" sketch:type="MSPage">
        <g id="Todos_Dark_24dp" sketch:type="MSArtboardGroup">
            <g id="ic_playlist_add_check_#5f6368_24dp-copy" sketch:type="MSLayerGroup">
                <g id="Clipped">
                    <mask id="mask-2" sketch:name="a" fill="white">
                        <use xlink:href="#path-1"/>
                    </mask>
                    <g id="a"/>
                    <path d="M14,10 L2,10 L2,12 L14,12 L14,10 L14,10 Z M14,6 L2,6 L2,8 L14,8 L14,6 L14,6 Z M2,16 L10,16 L10,14 L2,14 L2,16 L2,16 Z M21.5,11.5 L23,13 L16.01,20 L11.5,15.5 L13,14 L16.01,17 L21.5,11.5 L21.5,11.5 Z" id="Shape" fill="#5f6368" sketch:type="MSShapeGroup" mask="url(#mask-2)"/>
                </g>
            </g>
        </g>
    </g>
</g><g transform="translate(30,221)"><path fill="none" d="M0,0h24v24H0V0z"/>
<path fill="#FFFFFF" d="M12,5.8L15.2,9l1.4-1.4L12,3L7.4,7.6L8.8,9L12,5.8z M12,18.2L8.8,15l-1.4,1.4L12,21l4.6-4.6L15.2,15L12,18.2   z"/>
</g><g transform="translate(0,932)"><defs>
    <path id="unfold_more_gm_24_a" d="M8.92 9.91L12 6.83l3.08 3.08L16.5 8.5 12 4 7.5 8.5l1.42 1.41zm6.16 4.18L12 17.17l-3.08-3.08L7.5 15.5 12 20l4.5-4.5-1.42-1.41z"/>
  </defs>
  <g fill="none" fill-rule="evenodd">
    <mask id="unfold_more_gm_24_b" fill="#fff">
      <use xlink:href="#unfold_more_gm_24_a"/>
    </mask>
    <path fill="#5f6368" mask="url(#unfold_more_gm_24_b)" d="M0 0h24v24H0z"/>
  </g>
</g><g transform="translate(48,487)"><g>
 <polygon fill="#56A4F9" points="10,0 10,2 11.814,2 10.151,9.188 8.312,0 6.562,0 4.812,9.188 3.062,0 1,0 3.938,13 5.688,13    7.438,4.375 9.188,13 10.938,13 14,0  "/>
 <rect fill="none" width="14" height="14"/>
</g>
</g><g transform="translate(54,946)"><g id="word_24_a" stroke="none" stroke-width="1" fill="none" fill-rule="evenodd">
    <g id="word_24_b">
      <path d="M19,3 L5,3 C3.9,3 3,3.9 3,5 L3,19 C3,20.1 3.9,21 5,21 L19,21 C20.1,21 21,20.1 21,19 L21,5 C21,3.9 20.1,3 19,3 Z M15.5,17 L14,17 L12,9.5 L10,17 L8.5,17 L6.1,7 L7.8,7 L9.34,14.51 L11.3,7 L12.7,7 L14.67,14.51 L16.2,7 L17.9,7 L15.5,17 Z" id="Shape" fill="#4285F4" fill-rule="nonzero"/>
      <path d="M0,0 L24,0 L24,24 L0,24 L0,0 Z M0,0 L24,0 L24,24 L0,24 L0,0 Z" id="Shape"/>
    </g>
  </g>
</g><g transform="translate(24,511)"><g>
 <g>
  <g>
   <g>
    <g>
     <path fill="#FFFFFF" d="M29,10h-9V1H1.984C1.312,1,1,2,1,2v33c0,0.484,0.484,1,1,1h25.938C28.516,36,29,35.453,29,34.984V10z"/>
    </g>
   </g>
   <polygon fill="#E4E4E4" points="20,10 29,10 29,17    "/>
   <polygon fill="#F7F7F7" points="29,10 20,10 20,1    "/>
  </g>
  <g opacity="0.07">
   <path d="M20,1l9,9v7v17.984C29,35.453,28.516,36,27.938,36H2c-0.516,0-1-0.516-1-1V2c0,0,0.312-1,0.984-1H20 M20.414,0H20H1.984     C0.946,0,0.291,0.917,0.046,1.702L0,1.848V2v33c0,1.047,0.953,2,2,2h25.938C29.017,37,30,36.039,30,34.984V17v-7V9.586     l-0.293-0.293l-9-9L20.414,0L20.414,0z"/>
  </g>
 </g>
</g>
<g>
 <polygon fill="#56A4F9" points="18,15.04 18,17.04 19.814,17.04 18.151,24.228 16.312,15.04 14.562,15.04 12.812,24.228    11.062,15.04 9,15.04 11.938,28.04 13.688,28.04 15.438,19.415 17.188,28.04 18.938,28.04 22,15.04  "/>
 <rect x="8" y="15.04" fill="none" width="14" height="14"/>
</g>
</g><g transform="translate(24,306)"><g>
 <g>
  <g>
   <g opacity="0.03">
    <g>
     <path d="M29,10h-9V1H1.984C1.312,1,1,2,1,2v33c0,0.484,0.484,1,1,1h25.938C28.516,36,29,35.453,29,34.984V10z"/>
    </g>
   </g>
   <polygon fill="#DDDDDD" points="20,10 29,10 29,17    "/>
   <polygon fill="#EEEEEE" points="29,10 20,10 20,1    "/>
  </g>
  <g opacity="0.07">
   <path d="M20,1l9,9v7v17.984C29,35.453,28.516,36,27.938,36H2c-0.516,0-1-0.516-1-1V2c0,0,0.312-1,0.984-1H20 M20.414,0H20H1.984     C0.946,0,0.291,0.917,0.046,1.702L0,1.848V2v33c0,1.047,0.953,2,2,2h25.938C29.017,37,30,36.039,30,34.984V17v-7V9.586     l-0.293-0.293l-9-9L20.414,0L20.414,0z"/>
  </g>
 </g>
</g>
<g>
 <polygon fill="#56A4F9" points="18,15.04 18,17.04 19.814,17.04 18.151,24.228 16.312,15.04 14.562,15.04 12.812,24.228    11.062,15.04 9,15.04 11.938,28.04 13.688,28.04 15.438,19.415 17.188,28.04 18.938,28.04 22,15.04  "/>
 <rect x="8" y="15.04" fill="none" width="14" height="14"/>
</g>
</g></svg>